<?xml version="1.0" encoding="utf-8"?>
<!-- Generator: Adobe Illustrator 19.1.0, SVG Export Plug-In . SVG Version: 6.00 Build 0)  -->
<!DOCTYPE svg PUBLIC "-//W3C//DTD SVG 1.1//EN" "http://www.w3.org/Graphics/SVG/1.1/DTD/svg11.dtd">
<svg version="1.1" id="Layer_1" xmlns="http://www.w3.org/2000/svg" xmlns:xlink="http://www.w3.org/1999/xlink" x="0px" y="0px"
	 viewBox="0 0 425 300" style="enable-background:new 0 0 425 300;" xml:space="preserve">
<style type="text/css">
	.st0{fill:#282828;}
	.st1{fill:#FFE201;}
	.st2{fill:#FFFFFF;}
</style>
<rect class="st0" width="425" height="300"/>
<g>
	<g>
		<path class="st1" d="M255.4,110h-85.9c-3.8,0-7.3-2-9.2-5.3c-1.9-3.3-1.8-7.3,0.1-10.6l43.1-72.5c1.9-3.2,5.4-5.2,9.1-5.2
			c3.7,0,7.2,2,9.1,5.2l42.8,72.5c1.9,3.2,1.9,7.3,0.1,10.6C262.7,108,259.2,110,255.4,110z M212.7,24.7c-0.8,0-1.6,0.4-2,1.1
			l-43.1,72.5c-0.4,0.7-0.4,1.6,0,2.3c0.4,0.7,1.1,1.1,2,1.1h85.9c0.8,0,1.6-0.4,2-1.1c0.4-0.7,0.4-1.6,0-2.3l-42.8-72.5
			C214.2,25.2,213.5,24.8,212.7,24.7z"/>
	</g>
	<path class="st1" d="M212.8,20.6c-2.3,0-4.4,1.2-5.5,3.1l-43.1,72.5c-1.2,2-1.2,4.4-0.1,6.4c1.1,2,3.3,3.2,5.6,3.2h85.9
		c2.3,0,4.4-1.2,5.6-3.2c1.1-2,1.1-4.4,0-6.4l-42.8-72.5C217.2,21.8,215.1,20.6,212.8,20.6C212.8,20.6,212.8,20.6,212.8,20.6
		L212.8,20.6z"/>
	<g>
		<path d="M255.4,108.2h-85.9c-3.1,0-6-1.7-7.6-4.4c-1.5-2.7-1.5-6,0.1-8.7l43.1-72.5c1.6-2.6,4.4-4.3,7.5-4.3
			c3.1,0,5.9,1.6,7.5,4.3l42.8,72.5c1.6,2.7,1.6,6,0.1,8.7C261.5,106.5,258.6,108.2,255.4,108.2z M212.7,22.9c-1.5,0-2.8,0.8-3.6,2
			L166,97.4c-0.8,1.3-0.8,2.8,0,4.1c0.7,1.3,2.1,2,3.6,2h85.9c1.5,0,2.9-0.8,3.6-2c0.7-1.3,0.7-2.9,0-4.1l-42.8-72.5
			C215.5,23.7,214.1,22.9,212.7,22.9z"/>
	</g>
	<polygon points="235.6,73.8 229.2,67.4 229.2,71.1 224.6,71.1 224.6,61.9 215.4,61.9 215.4,57.3 219.1,57.3 212.7,50.9 206.2,57.3 
		209.9,57.3 209.9,61.9 200.7,61.9 200.7,71.1 196.2,71.1 196.2,67.4 189.7,73.8 196.2,80.2 196.2,76.6 200.7,76.6 200.7,85.7 
		209.9,85.7 209.9,90.3 206.2,90.3 212.7,96.7 219.1,90.3 215.4,90.3 215.4,85.7 224.6,85.7 224.6,76.6 229.2,76.6 229.2,80.2 	"/>
</g>
<g>
	<path class="st2" d="M34.2,175.5v-3.9h-4.1v3.9h-0.9V167h0.9v3.8h4.1V167h0.9v8.5H34.2z"/>
	<path class="st2" d="M40.5,175.5V175c-0.5,0.5-0.9,0.6-1.7,0.6c-0.8,0-1.3-0.2-1.7-0.5c-0.3-0.3-0.4-0.7-0.4-1.2c0-1,0.7-1.7,2-1.7
		h1.8v-0.6c0-0.9-0.4-1.3-1.5-1.3c-0.8,0-1.1,0.2-1.5,0.7l-0.6-0.5c0.5-0.7,1.1-0.9,2.1-0.9c1.6,0,2.4,0.7,2.4,2v4H40.5z
		 M40.5,172.8h-1.7c-0.9,0-1.3,0.4-1.3,1s0.4,1,1.4,1c0.5,0,0.9,0,1.3-0.4c0.2-0.2,0.3-0.5,0.3-1V172.8z"/>
	<path class="st2" d="M45.6,175.6c-1.5,0-2.6-1-2.6-3s1.1-3,2.6-3c0.8,0,1.3,0.2,1.9,0.9l-0.6,0.6c-0.4-0.5-0.8-0.7-1.4-0.7
		c-0.6,0-1.1,0.2-1.4,0.7c-0.3,0.4-0.4,0.8-0.4,1.6c0,0.7,0.1,1.2,0.4,1.6c0.3,0.4,0.8,0.7,1.4,0.7c0.6,0,0.9-0.2,1.4-0.7l0.6,0.6
		C46.9,175.4,46.4,175.6,45.6,175.6z"/>
	<path class="st2" d="M52.8,175.5l-1.9-3l-1.2,1.3v1.7h-0.9V167h0.9v5.7l2.7-3.1h1.1l-2,2.3l2.4,3.6H52.8z"/>
	<path class="st2" d="M55.4,172.8c0,1.3,0.6,2,1.7,2c0.7,0,1.1-0.2,1.5-0.7l0.6,0.5c-0.6,0.6-1.2,0.9-2.2,0.9c-1.6,0-2.6-0.9-2.6-3
		c0-1.9,0.9-3,2.4-3c1.5,0,2.4,1.1,2.4,2.9v0.4H55.4z M58.3,171.2c-0.2-0.5-0.8-0.9-1.4-0.9s-1.2,0.3-1.4,0.9
		c-0.1,0.3-0.2,0.5-0.2,1h3.1C58.5,171.7,58.5,171.5,58.3,171.2z"/>
	<path class="st2" d="M64.5,175.5v-0.7c-0.5,0.6-1,0.8-1.7,0.8c-0.6,0-1.1-0.2-1.4-0.5c-0.6-0.6-0.7-1.6-0.7-2.5
		c0-0.9,0.1-1.9,0.7-2.5c0.3-0.3,0.8-0.5,1.4-0.5c0.6,0,1.2,0.1,1.7,0.8V167h0.9v8.5H64.5z M63,170.3c-1.3,0-1.5,1.1-1.5,2.3
		s0.2,2.3,1.5,2.3s1.5-1.1,1.5-2.3S64.3,170.3,63,170.3z"/>
	<path class="st2" d="M73.4,175.5V175c-0.5,0.5-0.9,0.6-1.7,0.6c-0.8,0-1.3-0.2-1.7-0.5c-0.3-0.3-0.4-0.7-0.4-1.2c0-1,0.7-1.7,2-1.7
		h1.8v-0.6c0-0.9-0.4-1.3-1.5-1.3c-0.8,0-1.1,0.2-1.5,0.7l-0.6-0.5c0.5-0.7,1.1-0.9,2.1-0.9c1.6,0,2.4,0.7,2.4,2v4H73.4z
		 M73.4,172.8h-1.7c-0.9,0-1.3,0.4-1.3,1s0.4,1,1.4,1c0.5,0,0.9,0,1.3-0.4c0.2-0.2,0.3-0.5,0.3-1V172.8z"/>
	<path class="st2" d="M79.9,175.5v-3.6c0-1-0.6-1.6-1.5-1.6c-0.9,0-1.5,0.5-1.5,1.6v3.6h-0.9v-5.9H77v0.6c0.4-0.5,1-0.7,1.7-0.7
		c0.6,0,1.2,0.2,1.5,0.6c0.4,0.4,0.6,1,0.6,1.6v3.8H79.9z"/>
	<path class="st2" d="M86.1,175.5v-0.7c-0.5,0.6-1,0.8-1.7,0.8c-0.6,0-1.1-0.2-1.4-0.5c-0.6-0.6-0.7-1.6-0.7-2.5
		c0-0.9,0.1-1.9,0.7-2.5c0.3-0.3,0.8-0.5,1.4-0.5c0.6,0,1.2,0.1,1.7,0.8V167H87v8.5H86.1z M84.6,170.3c-1.3,0-1.5,1.1-1.5,2.3
		s0.2,2.3,1.5,2.3s1.5-1.1,1.5-2.3S85.9,170.3,84.6,170.3z"/>
	<path class="st2" d="M99.2,175.5v-3.6c0-1-0.6-1.6-1.5-1.6c-0.9,0-1.5,0.5-1.5,1.5v3.7h-0.9v-3.6c0-1-0.6-1.6-1.5-1.6
		c-0.9,0-1.5,0.5-1.5,1.6v3.6h-0.9v-5.9h0.9v0.6c0.4-0.5,1-0.7,1.7-0.7c0.8,0,1.5,0.3,1.8,1c0.5-0.6,1.1-1,1.9-1
		c0.6,0,1.2,0.2,1.5,0.6c0.4,0.4,0.6,1,0.6,1.6v3.8H99.2z"/>
	<path class="st2" d="M105.7,174.9c-0.4,0.4-1,0.7-1.7,0.7s-1.3-0.3-1.7-0.7c-0.6-0.6-0.7-1.4-0.7-2.4c0-0.9,0.1-1.7,0.7-2.4
		c0.4-0.4,1-0.7,1.7-0.7s1.3,0.3,1.7,0.7c0.6,0.6,0.7,1.4,0.7,2.4C106.5,173.5,106.3,174.3,105.7,174.9z M105.1,170.8
		c-0.3-0.3-0.7-0.4-1.1-0.4s-0.8,0.2-1.1,0.4c-0.4,0.4-0.5,1.2-0.5,1.8c0,0.7,0,1.4,0.5,1.8c0.3,0.3,0.6,0.4,1.1,0.4
		s0.8-0.2,1.1-0.4c0.4-0.4,0.5-1.2,0.5-1.8C105.6,171.9,105.6,171.2,105.1,170.8z"/>
	<path class="st2" d="M111.6,175.5v-0.7c-0.5,0.6-1,0.8-1.7,0.8c-0.6,0-1.1-0.2-1.4-0.5c-0.6-0.6-0.7-1.6-0.7-2.5
		c0-0.9,0.1-1.9,0.7-2.5c0.3-0.3,0.8-0.5,1.4-0.5c0.6,0,1.2,0.1,1.7,0.8V167h0.9v8.5H111.6z M110.1,170.3c-1.3,0-1.5,1.1-1.5,2.3
		s0.2,2.3,1.5,2.3s1.5-1.1,1.5-2.3S111.4,170.3,110.1,170.3z"/>
	<path class="st2" d="M114.3,168v-1h1v1H114.3z M114.4,175.5v-5.9h0.9v5.9H114.4z"/>
	<path class="st2" d="M118.2,170.3v5.2h-0.9v-5.2h-0.8v-0.7h0.8v-1.1c0-0.9,0.5-1.6,1.5-1.6h0.6v0.7H119c-0.6,0-0.8,0.3-0.8,0.9v1.1
		h1.3v0.7H118.2z"/>
	<path class="st2" d="M120.7,168v-1h1v1H120.7z M120.7,175.5v-5.9h0.9v5.9H120.7z"/>
	<path class="st2" d="M124,172.8c0,1.3,0.6,2,1.7,2c0.7,0,1.1-0.2,1.5-0.7l0.6,0.5c-0.6,0.6-1.2,0.9-2.2,0.9c-1.6,0-2.6-0.9-2.6-3
		c0-1.9,0.9-3,2.4-3c1.5,0,2.4,1.1,2.4,2.9v0.4H124z M127,171.2c-0.2-0.5-0.8-0.9-1.4-0.9s-1.2,0.3-1.4,0.9c-0.1,0.3-0.2,0.5-0.2,1
		h3.1C127.1,171.7,127.1,171.5,127,171.2z"/>
	<path class="st2" d="M133.1,175.5v-0.7c-0.5,0.6-1,0.8-1.7,0.8c-0.6,0-1.1-0.2-1.4-0.5c-0.6-0.6-0.7-1.6-0.7-2.5
		c0-0.9,0.1-1.9,0.7-2.5c0.3-0.3,0.8-0.5,1.4-0.5c0.6,0,1.2,0.1,1.7,0.8V167h0.9v8.5H133.1z M131.7,170.3c-1.3,0-1.5,1.1-1.5,2.3
		s0.2,2.3,1.5,2.3s1.5-1.1,1.5-2.3S132.9,170.3,131.7,170.3z"/>
	<path class="st2" d="M142.6,175.1c-0.3,0.3-0.8,0.5-1.4,0.5c-0.6,0-1.2-0.2-1.7-0.8v0.7h-0.9V167h0.9v3.3c0.5-0.6,1-0.8,1.7-0.8
		c0.6,0,1.1,0.2,1.4,0.5c0.6,0.6,0.7,1.6,0.7,2.5C143.4,173.5,143.2,174.5,142.6,175.1z M141,170.3c-1.3,0-1.5,1.1-1.5,2.3
		s0.2,2.3,1.5,2.3s1.5-1.1,1.5-2.3S142.3,170.3,141,170.3z"/>
	<path class="st2" d="M146.4,177c-0.1,0.3-0.3,0.5-0.4,0.7c-0.3,0.3-0.7,0.4-1.2,0.4h-0.4v-0.8h0.3c0.6,0,0.8-0.2,1-0.7l0.4-1.2
		l-2.1-5.8h0.9l1.6,4.7l1.6-4.7h0.9L146.4,177z"/>
	<path class="st2" d="M152.4,175.5v-0.9l4.3-6.9h-4.1V167h5.1v0.8l-4.3,7h4.3v0.8H152.4z"/>
	<path class="st2" d="M162.6,175.5V175c-0.5,0.5-0.9,0.6-1.7,0.6c-0.8,0-1.3-0.2-1.7-0.5c-0.3-0.3-0.4-0.7-0.4-1.2
		c0-1,0.7-1.7,2-1.7h1.8v-0.6c0-0.9-0.4-1.3-1.5-1.3c-0.8,0-1.1,0.2-1.5,0.7l-0.6-0.5c0.5-0.7,1.1-0.9,2.1-0.9c1.6,0,2.4,0.7,2.4,2
		v4H162.6z M162.6,172.8H161c-0.9,0-1.3,0.4-1.3,1s0.4,1,1.4,1c0.5,0,0.9,0,1.3-0.4c0.2-0.2,0.3-0.5,0.3-1V172.8z"/>
	<path class="st2" d="M167.6,175.6c-1.5,0-2.6-1-2.6-3s1.1-3,2.6-3c0.8,0,1.3,0.2,1.9,0.9L169,171c-0.4-0.5-0.8-0.7-1.4-0.7
		c-0.6,0-1.1,0.2-1.4,0.7c-0.3,0.4-0.4,0.8-0.4,1.6c0,0.7,0.1,1.2,0.4,1.6c0.3,0.4,0.8,0.7,1.4,0.7c0.6,0,0.9-0.2,1.4-0.7l0.6,0.6
		C169,175.4,168.4,175.6,167.6,175.6z"/>
	<path class="st2" d="M174.8,175.5v-3.6c0-1-0.6-1.6-1.4-1.6c-0.9,0-1.5,0.5-1.5,1.6v3.6H171V167h0.9v3.3c0.4-0.5,1-0.7,1.7-0.7
		c1.3,0,2.1,0.9,2.1,2.2v3.8H174.8z"/>
	<path class="st2" d="M182.6,175.6c-1.3,0-2.1-0.3-2.9-1.1l0.6-0.6c0.7,0.7,1.4,0.9,2.3,0.9c1.2,0,2-0.6,2-1.6
		c0-0.4-0.1-0.8-0.4-1.1c-0.3-0.2-0.5-0.3-1.1-0.4l-1-0.2c-0.7-0.1-1.2-0.3-1.6-0.6c-0.4-0.4-0.6-0.9-0.6-1.6c0-1.5,1-2.4,2.7-2.4
		c1.1,0,1.8,0.3,2.5,0.9l-0.6,0.6c-0.5-0.5-1.1-0.7-2-0.7c-1.1,0-1.8,0.6-1.8,1.6c0,0.4,0.1,0.8,0.4,1c0.3,0.2,0.7,0.4,1.2,0.5
		l0.9,0.1c0.8,0.1,1.2,0.3,1.6,0.6c0.5,0.4,0.7,1,0.7,1.7C185.5,174.7,184.4,175.6,182.6,175.6z"/>
	<path class="st2" d="M194.6,175.5v-3.6c0-1-0.6-1.6-1.5-1.6c-0.9,0-1.5,0.5-1.5,1.5v3.7h-0.9v-3.6c0-1-0.6-1.6-1.5-1.6
		c-0.9,0-1.5,0.5-1.5,1.6v3.6H187v-5.9h0.9v0.6c0.4-0.5,1-0.7,1.7-0.7c0.8,0,1.5,0.3,1.8,1c0.5-0.6,1.1-1,1.9-1
		c0.6,0,1.2,0.2,1.5,0.6c0.4,0.4,0.6,1,0.6,1.6v3.8H194.6z"/>
	<path class="st2" d="M197.3,168v-1h1v1H197.3z M197.4,175.5v-5.9h0.9v5.9H197.4z"/>
	<path class="st2" d="M201.8,175.5c-1,0-1.5-0.7-1.5-1.6v-3.6h-0.7v-0.7h0.7v-1.8h0.9v1.8h1.3v0.7h-1.3v3.6c0,0.5,0.3,0.9,0.8,0.9
		h0.5v0.7H201.8z"/>
	<path class="st2" d="M207.7,175.5v-3.6c0-1-0.6-1.6-1.4-1.6s-1.5,0.5-1.5,1.6v3.6h-0.9V167h0.9v3.3c0.4-0.5,1-0.7,1.7-0.7
		c1.3,0,2.1,0.9,2.1,2.2v3.8H207.7z"/>
	<path class="st2" d="M210.4,175.5v-1.1h1.1v1.1H210.4z"/>
	<path class="st2" d="M30.1,196.6v3.1h3.7v0.8h-3.7v3.8h-0.9v-8.5h5.3v0.8H30.1z"/>
	<path class="st2" d="M39.1,203.7c-0.4,0.4-1,0.7-1.7,0.7s-1.3-0.3-1.7-0.7c-0.6-0.6-0.7-1.4-0.7-2.4c0-0.9,0.1-1.7,0.7-2.4
		c0.4-0.4,1-0.7,1.7-0.7s1.3,0.3,1.7,0.7c0.6,0.6,0.7,1.4,0.7,2.4C39.9,202.3,39.7,203.1,39.1,203.7z M38.5,199.6
		c-0.3-0.3-0.7-0.4-1.1-0.4s-0.8,0.2-1.1,0.4c-0.4,0.4-0.5,1.2-0.5,1.8c0,0.7,0,1.4,0.5,1.8c0.3,0.3,0.6,0.4,1.1,0.4
		s0.8-0.2,1.1-0.4c0.4-0.4,0.5-1.2,0.5-1.8C39,200.7,39,200,38.5,199.6z"/>
	<path class="st2" d="M44.8,199.6c-0.3-0.3-0.6-0.4-1-0.4c-0.9,0-1.4,0.7-1.4,1.6v3.6h-0.9v-5.9h0.9v0.7c0.3-0.5,1-0.8,1.7-0.8
		c0.6,0,1,0.1,1.4,0.6L44.8,199.6z"/>
	<path class="st2" d="M50.2,204.3l-1.9-3l-1.2,1.3v1.7h-0.9v-8.5h0.9v5.7l2.7-3.1h1.1l-2,2.3l2.4,3.6H50.2z"/>
	<path class="st2" d="M52.8,201.6c0,1.3,0.6,2,1.7,2c0.7,0,1.1-0.2,1.5-0.7l0.6,0.5c-0.6,0.6-1.2,0.9-2.2,0.9c-1.6,0-2.6-0.9-2.6-3
		c0-1.9,0.9-3,2.4-3c1.5,0,2.4,1.1,2.4,2.9v0.4H52.8z M55.7,200c-0.2-0.5-0.8-0.9-1.4-0.9s-1.2,0.3-1.4,0.9c-0.1,0.3-0.2,0.5-0.2,1
		h3.1C55.9,200.5,55.8,200.3,55.7,200z"/>
	<path class="st2" d="M61.9,204.3v-0.7c-0.5,0.6-1,0.8-1.7,0.8c-0.6,0-1.1-0.2-1.4-0.5c-0.6-0.6-0.7-1.6-0.7-2.5
		c0-0.9,0.1-1.9,0.7-2.5c0.3-0.3,0.8-0.5,1.4-0.5c0.6,0,1.2,0.1,1.7,0.8v-3.3h0.9v8.5H61.9z M60.4,199.1c-1.3,0-1.5,1.1-1.5,2.3
		s0.2,2.3,1.5,2.3s1.5-1.1,1.5-2.3S61.7,199.1,60.4,199.1z"/>
	<path class="st2" d="M68.5,199.1v5.2h-0.9v-5.2h-0.8v-0.7h0.8v-1.1c0-0.9,0.5-1.6,1.5-1.6h0.6v0.7h-0.5c-0.6,0-0.8,0.3-0.8,0.9v1.1
		h1.3v0.7H68.5z"/>
	<path class="st2" d="M74.2,199.6c-0.3-0.3-0.6-0.4-1-0.4c-0.9,0-1.4,0.7-1.4,1.6v3.6h-0.9v-5.9h0.9v0.7c0.3-0.5,1-0.8,1.7-0.8
		c0.6,0,1,0.1,1.4,0.6L74.2,199.6z"/>
	<path class="st2" d="M79.1,203.7c-0.4,0.4-1,0.7-1.7,0.7s-1.3-0.3-1.7-0.7c-0.6-0.6-0.7-1.4-0.7-2.4c0-0.9,0.1-1.7,0.7-2.4
		c0.4-0.4,1-0.7,1.7-0.7s1.3,0.3,1.7,0.7c0.6,0.6,0.7,1.4,0.7,2.4C79.8,202.3,79.7,203.1,79.1,203.7z M78.5,199.6
		c-0.3-0.3-0.7-0.4-1.1-0.4s-0.8,0.2-1.1,0.4c-0.4,0.4-0.5,1.2-0.5,1.8c0,0.7,0,1.4,0.5,1.8c0.3,0.3,0.6,0.4,1.1,0.4
		s0.8-0.2,1.1-0.4c0.4-0.4,0.5-1.2,0.5-1.8C79,200.7,78.9,200,78.5,199.6z"/>
	<path class="st2" d="M89,204.3v-3.6c0-1-0.6-1.6-1.5-1.6c-0.9,0-1.5,0.5-1.5,1.5v3.7h-0.9v-3.6c0-1-0.6-1.6-1.5-1.6
		c-0.9,0-1.5,0.5-1.5,1.6v3.6h-0.9v-5.9h0.9v0.6c0.4-0.5,1-0.7,1.7-0.7c0.8,0,1.5,0.3,1.8,1c0.5-0.6,1.1-1,1.9-1
		c0.6,0,1.2,0.2,1.5,0.6c0.4,0.4,0.6,1,0.6,1.6v3.8H89z"/>
	<path class="st2" d="M99.6,204.3l-0.7-1.9h-3.7l-0.7,1.9h-1l3.1-8.5h0.8l3.1,8.5H99.6z M97.1,197.1l-1.6,4.5h3.2L97.1,197.1z"/>
	<path class="st2" d="M104.9,199.6c-0.3-0.3-0.6-0.4-1-0.4c-0.9,0-1.4,0.7-1.4,1.6v3.6h-0.9v-5.9h0.9v0.7c0.3-0.5,1-0.8,1.7-0.8
		c0.6,0,1,0.1,1.4,0.6L104.9,199.6z"/>
	<path class="st2" d="M109.5,204.3v-0.7c-0.5,0.6-1,0.8-1.7,0.8c-0.6,0-1.1-0.2-1.4-0.5c-0.6-0.6-0.7-1.6-0.7-2.5
		c0-0.9,0.1-1.9,0.7-2.5c0.3-0.3,0.8-0.5,1.4-0.5c0.6,0,1.2,0.1,1.7,0.8v-3.3h0.9v8.5H109.5z M108,199.1c-1.3,0-1.5,1.1-1.5,2.3
		s0.2,2.3,1.5,2.3s1.5-1.1,1.5-2.3S109.3,199.1,108,199.1z"/>
	<path class="st2" d="M116,204.3v-0.7c-0.4,0.5-1,0.7-1.7,0.7c-0.6,0-1.2-0.2-1.5-0.6c-0.4-0.4-0.6-1-0.6-1.7v-3.8h0.9v3.6
		c0,1,0.6,1.6,1.4,1.6c0.9,0,1.5-0.5,1.5-1.6v-3.6h0.9v5.9H116z"/>
	<path class="st2" d="M118.8,196.8v-1h1v1H118.8z M118.8,204.3v-5.9h0.9v5.9H118.8z"/>
	<path class="st2" d="M125.4,204.3v-3.6c0-1-0.6-1.6-1.5-1.6c-0.9,0-1.5,0.5-1.5,1.6v3.6h-0.9v-5.9h0.9v0.6c0.4-0.5,1-0.7,1.7-0.7
		c0.6,0,1.2,0.2,1.5,0.6c0.4,0.4,0.6,1,0.6,1.6v3.8H125.4z"/>
	<path class="st2" d="M131.9,203.7c-0.4,0.4-1,0.7-1.7,0.7s-1.3-0.3-1.7-0.7c-0.6-0.6-0.7-1.4-0.7-2.4c0-0.9,0.1-1.7,0.7-2.4
		c0.4-0.4,1-0.7,1.7-0.7s1.3,0.3,1.7,0.7c0.6,0.6,0.7,1.4,0.7,2.4C132.6,202.3,132.5,203.1,131.9,203.7z M131.3,199.6
		c-0.3-0.3-0.7-0.4-1.1-0.4s-0.8,0.2-1.1,0.4c-0.4,0.4-0.5,1.2-0.5,1.8c0,0.7,0,1.4,0.5,1.8c0.3,0.3,0.6,0.4,1.1,0.4
		s0.8-0.2,1.1-0.4c0.4-0.4,0.5-1.2,0.5-1.8C131.7,200.7,131.7,200,131.3,199.6z"/>
	<path class="st2" d="M134.2,206.1v-2.8h1.1v1.8L134.2,206.1z"/>
	<path class="st2" d="M145.5,204.3h-0.8l-1.5-4.6l-1.5,4.6h-0.8l-1.9-5.9h0.9l1.4,4.7l1.5-4.7h0.7l1.6,4.7l1.3-4.7h0.9L145.5,204.3z
		"/>
	<path class="st2" d="M152.1,204.3v-3.6c0-1-0.6-1.6-1.4-1.6c-0.9,0-1.5,0.5-1.5,1.6v3.6h-0.9v-8.5h0.9v3.3c0.4-0.5,1-0.7,1.7-0.7
		c1.3,0,2.1,0.9,2.1,2.2v3.8H152.1z"/>
	<path class="st2" d="M154.8,196.8v-1h1v1H154.8z M154.9,204.3v-5.9h0.9v5.9H154.9z"/>
	<path class="st2" d="M159.9,204.4c-1.5,0-2.6-1-2.6-3s1.1-3,2.6-3c0.8,0,1.3,0.2,1.9,0.9l-0.6,0.6c-0.4-0.5-0.8-0.7-1.4-0.7
		c-0.6,0-1.1,0.2-1.4,0.7c-0.3,0.4-0.4,0.8-0.4,1.6c0,0.7,0.1,1.2,0.4,1.6c0.3,0.4,0.8,0.7,1.4,0.7c0.6,0,0.9-0.2,1.4-0.7l0.6,0.6
		C161.3,204.2,160.8,204.4,159.9,204.4z"/>
	<path class="st2" d="M167.1,204.3v-3.6c0-1-0.6-1.6-1.4-1.6c-0.9,0-1.5,0.5-1.5,1.6v3.6h-0.9v-8.5h0.9v3.3c0.4-0.5,1-0.7,1.7-0.7
		c1.3,0,2.1,0.9,2.1,2.2v3.8H167.1z"/>
	<path class="st2" d="M178.2,204.3h-0.8l-1.5-4.6l-1.5,4.6h-0.8l-1.9-5.9h0.9l1.4,4.7l1.5-4.7h0.7l1.6,4.7l1.3-4.7h0.9L178.2,204.3z
		"/>
	<path class="st2" d="M184.3,204.3v-0.6c-0.5,0.5-0.9,0.6-1.7,0.6c-0.8,0-1.3-0.2-1.7-0.5c-0.3-0.3-0.4-0.7-0.4-1.2
		c0-1,0.7-1.7,2-1.7h1.8v-0.6c0-0.9-0.4-1.3-1.5-1.3c-0.8,0-1.1,0.2-1.5,0.7l-0.6-0.5c0.5-0.7,1.1-0.9,2.1-0.9c1.6,0,2.4,0.7,2.4,2
		v4H184.3z M184.3,201.6h-1.7c-0.9,0-1.3,0.4-1.3,1s0.4,1,1.4,1c0.5,0,0.9,0,1.3-0.4c0.2-0.2,0.3-0.5,0.3-1V201.6z"/>
	<path class="st2" d="M188.9,204.4c-1,0-1.8-0.2-2.4-0.9l0.6-0.6c0.5,0.5,1.1,0.7,1.8,0.7c1,0,1.6-0.3,1.6-1c0-0.5-0.3-0.8-1-0.9
		l-1-0.1c-1.2-0.1-1.8-0.6-1.8-1.6c0-1.1,0.9-1.7,2.2-1.7c0.8,0,1.6,0.2,2.1,0.6l-0.6,0.6c-0.4-0.3-1-0.5-1.6-0.5
		c-0.9,0-1.3,0.4-1.3,1c0,0.5,0.3,0.8,1,0.9l0.9,0.1c1,0.1,1.7,0.5,1.7,1.6C191.3,203.8,190.3,204.4,188.9,204.4z"/>
	<path class="st2" d="M201.1,204.3h-0.8l-1.5-4.6l-1.5,4.6h-0.8l-1.9-5.9h0.9l1.4,4.7l1.5-4.7h0.7l1.6,4.7l1.3-4.7h0.9L201.1,204.3z
		"/>
	<path class="st2" d="M207.3,199.6c-0.3-0.3-0.6-0.4-1-0.4c-0.9,0-1.4,0.7-1.4,1.6v3.6H204v-5.9h0.9v0.7c0.3-0.5,1-0.8,1.7-0.8
		c0.6,0,1,0.1,1.4,0.6L207.3,199.6z"/>
	<path class="st2" d="M208.7,196.8v-1h1v1H208.7z M208.8,204.3v-5.9h0.9v5.9H208.8z"/>
	<path class="st2" d="M213.2,204.3c-1,0-1.5-0.7-1.5-1.6v-3.6H211v-0.7h0.7v-1.8h0.9v1.8h1.3v0.7h-1.3v3.6c0,0.5,0.3,0.9,0.8,0.9
		h0.5v0.7H213.2z"/>
	<path class="st2" d="M217,204.3c-1,0-1.5-0.7-1.5-1.6v-3.6h-0.7v-0.7h0.7v-1.8h0.9v1.8h1.3v0.7h-1.3v3.6c0,0.5,0.3,0.9,0.8,0.9h0.5
		v0.7H217z"/>
	<path class="st2" d="M219.5,201.6c0,1.3,0.6,2,1.7,2c0.7,0,1.1-0.2,1.5-0.7l0.6,0.5c-0.6,0.6-1.2,0.9-2.2,0.9c-1.6,0-2.6-0.9-2.6-3
		c0-1.9,0.9-3,2.4-3c1.5,0,2.4,1.1,2.4,2.9v0.4H219.5z M222.4,200c-0.2-0.5-0.8-0.9-1.4-0.9c-0.6,0-1.2,0.3-1.4,0.9
		c-0.1,0.3-0.2,0.5-0.2,1h3.1C222.6,200.5,222.6,200.3,222.4,200z"/>
	<path class="st2" d="M228.9,204.3v-3.6c0-1-0.6-1.6-1.5-1.6s-1.5,0.5-1.5,1.6v3.6h-0.9v-5.9h0.9v0.6c0.4-0.5,1-0.7,1.7-0.7
		c0.6,0,1.2,0.2,1.5,0.6c0.4,0.4,0.6,1,0.6,1.6v3.8H228.9z"/>
	<path class="st2" d="M238.3,203.9c-0.3,0.3-0.8,0.5-1.4,0.5c-0.6,0-1.2-0.2-1.7-0.8v0.7h-0.9v-8.5h0.9v3.3c0.5-0.6,1-0.8,1.7-0.8
		c0.6,0,1.1,0.2,1.4,0.5c0.6,0.6,0.7,1.6,0.7,2.5C239,202.3,238.9,203.3,238.3,203.9z M236.7,199.1c-1.3,0-1.5,1.1-1.5,2.3
		s0.2,2.3,1.5,2.3c1.3,0,1.5-1.1,1.5-2.3S238,199.1,236.7,199.1z"/>
	<path class="st2" d="M242.1,205.8c-0.1,0.3-0.3,0.5-0.4,0.7c-0.3,0.3-0.7,0.4-1.2,0.4h-0.4v-0.8h0.3c0.6,0,0.8-0.2,1-0.7l0.4-1.2
		l-2.1-5.8h0.9l1.6,4.7l1.6-4.7h0.9L242.1,205.8z"/>
	<path class="st2" d="M255.1,204.3v-6.5l-2.3,5.1H252l-2.4-5.1v6.5h-0.9v-8.5h0.9l2.8,6.1l2.7-6.1h0.9v8.5H255.1z"/>
	<path class="st2" d="M261.4,204.3v-0.6c-0.5,0.5-0.9,0.6-1.7,0.6c-0.8,0-1.3-0.2-1.7-0.5c-0.3-0.3-0.4-0.7-0.4-1.2
		c0-1,0.7-1.7,2-1.7h1.8v-0.6c0-0.9-0.4-1.3-1.5-1.3c-0.8,0-1.1,0.2-1.5,0.7l-0.6-0.5c0.5-0.7,1.1-0.9,2.1-0.9c1.6,0,2.4,0.7,2.4,2
		v4H261.4z M261.4,201.6h-1.7c-0.9,0-1.3,0.4-1.3,1s0.4,1,1.4,1c0.5,0,0.9,0,1.3-0.4c0.2-0.2,0.3-0.5,0.3-1V201.6z"/>
	<path class="st2" d="M266,204.4c-1,0-1.8-0.2-2.4-0.9l0.6-0.6c0.5,0.5,1.1,0.7,1.8,0.7c1,0,1.6-0.3,1.6-1c0-0.5-0.3-0.8-1-0.9
		l-1-0.1c-1.2-0.1-1.8-0.6-1.8-1.6c0-1.1,0.9-1.7,2.2-1.7c0.8,0,1.6,0.2,2.1,0.6l-0.6,0.6c-0.4-0.3-1-0.5-1.6-0.5
		c-0.9,0-1.3,0.4-1.3,1c0,0.5,0.3,0.8,1,0.9l0.9,0.1c1,0.1,1.7,0.5,1.7,1.6C268.4,203.8,267.4,204.4,266,204.4z"/>
	<path class="st2" d="M271.5,204.4c-1,0-1.8-0.2-2.4-0.9l0.6-0.6c0.5,0.5,1.1,0.7,1.8,0.7c1,0,1.6-0.3,1.6-1c0-0.5-0.3-0.8-1-0.9
		l-1-0.1c-1.2-0.1-1.8-0.6-1.8-1.6c0-1.1,0.9-1.7,2.2-1.7c0.8,0,1.6,0.2,2.1,0.6l-0.6,0.6c-0.4-0.3-1-0.5-1.6-0.5
		c-0.9,0-1.3,0.4-1.3,1c0,0.5,0.3,0.8,1,0.9l0.9,0.1c1,0.1,1.7,0.5,1.7,1.6C273.9,203.8,272.9,204.4,271.5,204.4z"/>
	<path class="st2" d="M275.3,196.8v-1h1v1H275.3z M275.4,204.3v-5.9h0.9v5.9H275.4z"/>
	<path class="st2" d="M285.7,204.3v-3.6c0-1-0.6-1.6-1.5-1.6c-0.9,0-1.5,0.5-1.5,1.5v3.7H282v-3.6c0-1-0.6-1.6-1.5-1.6
		s-1.5,0.5-1.5,1.6v3.6h-0.9v-5.9h0.9v0.6c0.4-0.5,1-0.7,1.7-0.7c0.8,0,1.5,0.3,1.8,1c0.5-0.6,1.1-1,1.9-1c0.6,0,1.2,0.2,1.5,0.6
		c0.4,0.4,0.6,1,0.6,1.6v3.8H285.7z"/>
	<path class="st2" d="M292.3,203.7c-0.4,0.4-1,0.7-1.7,0.7c-0.7,0-1.3-0.3-1.7-0.7c-0.6-0.6-0.7-1.4-0.7-2.4c0-0.9,0.1-1.7,0.7-2.4
		c0.4-0.4,1-0.7,1.7-0.7c0.7,0,1.3,0.3,1.7,0.7c0.6,0.6,0.7,1.4,0.7,2.4C293,202.3,292.9,203.1,292.3,203.7z M291.6,199.6
		c-0.3-0.3-0.7-0.4-1.1-0.4c-0.4,0-0.8,0.2-1.1,0.4c-0.4,0.4-0.5,1.2-0.5,1.8c0,0.7,0,1.4,0.5,1.8c0.3,0.3,0.6,0.4,1.1,0.4
		c0.4,0,0.8-0.2,1.1-0.4c0.4-0.4,0.5-1.2,0.5-1.8C292.1,200.7,292.1,200,291.6,199.6z"/>
	<path class="st2" d="M300.8,204.3h-3.3v-8.5h3.2c1.5,0,2.5,0.9,2.5,2.3c0,0.9-0.5,1.6-1.3,1.9c0.8,0.3,1.4,1,1.4,2
		C303.4,203.5,302.3,204.3,300.8,204.3z M300.6,196.6h-2.2v3h2.2c0.9,0,1.7-0.5,1.7-1.5C302.3,197.1,301.6,196.6,300.6,196.6z
		 M300.7,200.4h-2.3v3.1h2.3c1.1,0,1.7-0.6,1.7-1.6C302.4,201,301.8,200.4,300.7,200.4z"/>
	<path class="st2" d="M308.5,204.3v-0.6c-0.5,0.5-0.9,0.6-1.7,0.6c-0.8,0-1.3-0.2-1.7-0.5c-0.3-0.3-0.4-0.7-0.4-1.2
		c0-1,0.7-1.7,2-1.7h1.8v-0.6c0-0.9-0.4-1.3-1.5-1.3c-0.8,0-1.1,0.2-1.5,0.7l-0.6-0.5c0.5-0.7,1.1-0.9,2.1-0.9c1.6,0,2.4,0.7,2.4,2
		v4H308.5z M308.5,201.6h-1.7c-0.9,0-1.3,0.4-1.3,1s0.4,1,1.4,1c0.5,0,0.9,0,1.3-0.4c0.2-0.2,0.3-0.5,0.3-1V201.6z"/>
	<path class="st2" d="M315,204.3v-3.6c0-1-0.6-1.6-1.5-1.6s-1.5,0.5-1.5,1.6v3.6h-0.9v-5.9h0.9v0.6c0.4-0.5,1-0.7,1.7-0.7
		c0.6,0,1.2,0.2,1.5,0.6c0.4,0.4,0.6,1,0.6,1.6v3.8H315z"/>
	<path class="st2" d="M317.2,204.3v-0.7l3.3-4.4h-3.1v-0.8h4.1v0.7l-3.3,4.4h3.3v0.8H317.2z"/>
	<path class="st2" d="M322.9,196.8v-1h1v1H322.9z M323,204.3v-5.9h0.9v5.9H323z"/>
	<path class="st2" d="M325.7,206.1v-2.8h1.1v1.8L325.7,206.1z"/>
	<path class="st2" d="M336.7,203.6c-0.5,0.5-1.3,0.8-2.2,0.8h-2.9v-8.5h2.9c0.9,0,1.6,0.3,2.2,0.8c0.9,0.9,0.8,2.2,0.8,3.4
		C337.5,201.2,337.6,202.7,336.7,203.6z M336,197.2c-0.4-0.5-1-0.6-1.7-0.6h-1.9v6.9h1.9c0.7,0,1.2-0.2,1.7-0.6
		c0.6-0.6,0.6-1.9,0.6-2.9C336.6,198.9,336.6,197.9,336,197.2z"/>
	<path class="st2" d="M342.6,204.3v-0.6c-0.5,0.5-0.9,0.6-1.7,0.6c-0.8,0-1.3-0.2-1.7-0.5c-0.3-0.3-0.4-0.7-0.4-1.2
		c0-1,0.7-1.7,2-1.7h1.8v-0.6c0-0.9-0.4-1.3-1.5-1.3c-0.8,0-1.1,0.2-1.5,0.7l-0.6-0.5c0.5-0.7,1.1-0.9,2.1-0.9c1.6,0,2.4,0.7,2.4,2
		v4H342.6z M342.6,201.6H341c-0.9,0-1.3,0.4-1.3,1s0.4,1,1.4,1c0.5,0,0.9,0,1.3-0.4c0.2-0.2,0.3-0.5,0.3-1V201.6z"/>
	<path class="st2" d="M347.3,204.3h-0.8l-2.2-5.9h0.9l1.6,4.7l1.6-4.7h0.9L347.3,204.3z"/>
	<path class="st2" d="M350.4,196.8v-1h1v1H350.4z M350.5,204.3v-5.9h0.9v5.9H350.5z"/>
	<path class="st2" d="M356.8,204.3v-0.7c-0.5,0.6-1,0.8-1.7,0.8c-0.6,0-1.1-0.2-1.4-0.5c-0.6-0.6-0.7-1.6-0.7-2.5
		c0-0.9,0.1-1.9,0.7-2.5c0.3-0.3,0.8-0.5,1.4-0.5c0.6,0,1.2,0.1,1.7,0.8v-3.3h0.9v8.5H356.8z M355.3,199.1c-1.3,0-1.5,1.1-1.5,2.3
		s0.2,2.3,1.5,2.3s1.5-1.1,1.5-2.3S356.6,199.1,355.3,199.1z"/>
	<path class="st2" d="M31.9,218.8c-0.8,0-1.6-0.3-2.2-0.9c-0.8-0.8-0.8-1.6-0.8-3.5c0-1.8,0-2.7,0.8-3.5c0.6-0.6,1.3-0.9,2.2-0.9
		c1.5,0,2.7,0.9,3,2.5h-0.9c-0.2-1-1-1.7-2-1.7c-0.6,0-1.1,0.2-1.5,0.6c-0.5,0.6-0.6,1.1-0.6,2.9s0.1,2.4,0.6,2.9
		c0.4,0.4,0.9,0.6,1.5,0.6c1.1,0,1.8-0.7,2.1-1.7h0.9C34.6,217.9,33.4,218.8,31.9,218.8z"/>
	<path class="st2" d="M40.2,218.7v-0.7c-0.4,0.5-1,0.7-1.7,0.7c-0.6,0-1.2-0.2-1.5-0.6c-0.4-0.4-0.6-1-0.6-1.7v-3.8h0.9v3.6
		c0,1,0.6,1.6,1.4,1.6c0.9,0,1.5-0.5,1.5-1.6v-3.6h0.9v5.9H40.2z"/>
	<path class="st2" d="M46.3,218.7v-0.6c-0.5,0.5-0.9,0.6-1.7,0.6c-0.8,0-1.3-0.2-1.7-0.5c-0.3-0.3-0.4-0.7-0.4-1.2
		c0-1,0.7-1.7,2-1.7h1.8v-0.6c0-0.9-0.4-1.3-1.5-1.3c-0.8,0-1.1,0.2-1.5,0.7l-0.6-0.5c0.5-0.7,1.1-0.9,2.1-0.9c1.6,0,2.4,0.7,2.4,2
		v4H46.3z M46.3,216h-1.7c-0.9,0-1.3,0.4-1.3,1s0.4,1,1.4,1c0.5,0,0.9,0,1.3-0.4c0.2-0.2,0.3-0.5,0.3-1V216z"/>
	<path class="st2" d="M52.4,214c-0.3-0.3-0.6-0.4-1-0.4c-0.9,0-1.4,0.7-1.4,1.6v3.6h-0.9v-5.9h0.9v0.7c0.3-0.5,1-0.8,1.7-0.8
		c0.6,0,1,0.1,1.4,0.6L52.4,214z"/>
	<path class="st2" d="M55.5,218.7c-1,0-1.5-0.7-1.5-1.6v-3.6h-0.7v-0.7H54V211h0.9v1.8h1.3v0.7h-1.3v3.6c0,0.5,0.3,0.9,0.8,0.9h0.5
		v0.7H55.5z"/>
	<path class="st2" d="M57.6,211.2v-1h1v1H57.6z M57.6,218.7v-5.9h0.9v5.9H57.6z"/>
	<path class="st2" d="M61,216c0,1.3,0.6,2,1.7,2c0.7,0,1.1-0.2,1.5-0.7l0.6,0.5c-0.6,0.6-1.2,0.9-2.2,0.9c-1.6,0-2.6-0.9-2.6-3
		c0-1.9,0.9-3,2.4-3c1.5,0,2.4,1.1,2.4,2.9v0.4H61z M63.9,214.4c-0.2-0.5-0.8-0.9-1.4-0.9s-1.2,0.3-1.4,0.9c-0.1,0.3-0.2,0.5-0.2,1
		h3.1C64,214.9,64,214.7,63.9,214.4z"/>
	<path class="st2" d="M68,218.7c-1,0-1.5-0.7-1.5-1.6v-7h0.9v6.9c0,0.6,0.2,0.9,0.8,0.9h0.5v0.7H68z"/>
	<path class="st2" d="M71.3,218.7c-1,0-1.5-0.7-1.5-1.6v-7h0.9v6.9c0,0.6,0.2,0.9,0.8,0.9H72v0.7H71.3z"/>
	<path class="st2" d="M73.4,216c0,1.3,0.6,2,1.7,2c0.7,0,1.1-0.2,1.5-0.7l0.6,0.5c-0.6,0.6-1.2,0.9-2.2,0.9c-1.6,0-2.6-0.9-2.6-3
		c0-1.9,0.9-3,2.4-3c1.5,0,2.4,1.1,2.4,2.9v0.4H73.4z M76.4,214.4c-0.2-0.5-0.8-0.9-1.4-0.9s-1.2,0.3-1.4,0.9
		c-0.1,0.3-0.2,0.5-0.2,1h3.1C76.5,214.9,76.5,214.7,76.4,214.4z"/>
	<path class="st2" d="M80.9,218.8c-1,0-1.8-0.2-2.4-0.9l0.6-0.6c0.5,0.5,1.1,0.7,1.8,0.7c1,0,1.6-0.3,1.6-1c0-0.5-0.3-0.8-1-0.9
		l-1-0.1c-1.2-0.1-1.8-0.6-1.8-1.6c0-1.1,0.9-1.7,2.2-1.7c0.8,0,1.6,0.2,2.1,0.6l-0.6,0.6c-0.4-0.3-1-0.5-1.6-0.5
		c-0.9,0-1.3,0.4-1.3,1c0,0.5,0.3,0.8,1,0.9l0.9,0.1c1,0.1,1.7,0.5,1.7,1.6C83.3,218.2,82.3,218.8,80.9,218.8z"/>
	<path class="st2" d="M84.7,220.5v-2.8h1.1v1.8L84.7,220.5z"/>
	<path class="st2" d="M93,211v7.7h-0.9V211h-2.5v-0.8h5.9v0.8H93z"/>
	<path class="st2" d="M99.6,218.1c-0.4,0.4-1,0.7-1.7,0.7s-1.3-0.3-1.7-0.7c-0.6-0.6-0.7-1.4-0.7-2.4c0-0.9,0.1-1.7,0.7-2.4
		c0.4-0.4,1-0.7,1.7-0.7s1.3,0.3,1.7,0.7c0.6,0.6,0.7,1.4,0.7,2.4C100.3,216.7,100.2,217.5,99.6,218.1z M99,214
		c-0.3-0.3-0.7-0.4-1.1-0.4s-0.8,0.2-1.1,0.4c-0.4,0.4-0.5,1.2-0.5,1.8c0,0.7,0,1.4,0.5,1.8c0.3,0.3,0.6,0.4,1.1,0.4
		s0.8-0.2,1.1-0.4c0.4-0.4,0.5-1.2,0.5-1.8C99.5,215.1,99.4,214.4,99,214z"/>
	<path class="st2" d="M109.5,218.7v-3.6c0-1-0.6-1.6-1.5-1.6c-0.9,0-1.5,0.5-1.5,1.5v3.7h-0.9v-3.6c0-1-0.6-1.6-1.5-1.6
		c-0.9,0-1.5,0.5-1.5,1.6v3.6h-0.9v-5.9h0.9v0.6c0.4-0.5,1-0.7,1.7-0.7c0.8,0,1.5,0.3,1.8,1c0.5-0.6,1.1-1,1.9-1
		c0.6,0,1.2,0.2,1.5,0.6c0.4,0.4,0.6,1,0.6,1.6v3.8H109.5z"/>
	<path class="st2" d="M115.1,218.7v-8.5h0.9v8.5H115.1z"/>
	<path class="st2" d="M120,221.5c-0.9,0-1.4-0.2-2-0.8l0.6-0.6c0.4,0.4,0.7,0.6,1.4,0.6c1.1,0,1.6-0.8,1.6-1.8V218
		c-0.5,0.6-1,0.8-1.7,0.8c-0.6,0-1.1-0.2-1.4-0.5c-0.6-0.6-0.7-1.5-0.7-2.5c0-1,0.1-1.9,0.7-2.5c0.3-0.3,0.8-0.5,1.4-0.5
		c0.6,0,1.2,0.1,1.7,0.8v-0.7h0.9v6.1C122.5,220.4,121.6,221.5,120,221.5z M120.2,213.5c-1.3,0-1.5,1.1-1.5,2.2s0.2,2.2,1.5,2.2
		s1.5-1.1,1.5-2.2S121.4,213.5,120.2,213.5z"/>
	<path class="st2" d="M128.2,218.1c-0.4,0.4-1,0.7-1.7,0.7s-1.3-0.3-1.7-0.7c-0.6-0.6-0.7-1.4-0.7-2.4c0-0.9,0.1-1.7,0.7-2.4
		c0.4-0.4,1-0.7,1.7-0.7s1.3,0.3,1.7,0.7c0.6,0.6,0.7,1.4,0.7,2.4C128.9,216.7,128.8,217.5,128.2,218.1z M127.6,214
		c-0.3-0.3-0.7-0.4-1.1-0.4s-0.8,0.2-1.1,0.4c-0.4,0.4-0.5,1.2-0.5,1.8c0,0.7,0,1.4,0.5,1.8c0.3,0.3,0.6,0.4,1.1,0.4
		s0.8-0.2,1.1-0.4c0.4-0.4,0.5-1.2,0.5-1.8C128.1,215.1,128,214.4,127.6,214z"/>
	<path class="st2" d="M131.1,216c0,1.3,0.6,2,1.7,2c0.7,0,1.1-0.2,1.5-0.7l0.6,0.5c-0.6,0.6-1.2,0.9-2.2,0.9c-1.6,0-2.6-0.9-2.6-3
		c0-1.9,0.9-3,2.4-3c1.5,0,2.4,1.1,2.4,2.9v0.4H131.1z M134,214.4c-0.2-0.5-0.8-0.9-1.4-0.9s-1.2,0.3-1.4,0.9
		c-0.1,0.3-0.2,0.5-0.2,1h3.1C134.2,214.9,134.1,214.7,134,214.4z"/>
	<path class="st2" d="M136.6,220.5v-2.8h1.1v1.8L136.6,220.5z"/>
	<path class="st2" d="M147.4,217.8c-0.6,0.6-1.4,1-2.3,1c-0.8,0-1.6-0.3-2.2-0.9c-0.8-0.8-0.8-1.6-0.8-3.5c0-1.8,0-2.7,0.8-3.5
		c0.6-0.6,1.3-0.9,2.2-0.9c1.6,0,2.7,1.1,3,2.6h-0.9c-0.2-1.1-1-1.7-2.1-1.7c-0.6,0-1.1,0.2-1.5,0.6c-0.5,0.6-0.6,1.1-0.6,2.9
		s0.1,2.4,0.6,2.9c0.4,0.4,0.9,0.6,1.5,0.6c0.6,0,1.2-0.3,1.6-0.7c0.3-0.4,0.5-0.9,0.5-1.5v-0.6h-2.1v-0.8h3v1.4
		C148.1,216.6,147.9,217.3,147.4,217.8z"/>
	<path class="st2" d="M149.8,211.2v-1h1v1H149.8z M149.9,218.7v-5.9h0.9v5.9H149.9z"/>
	<path class="st2" d="M156,218.7v-0.6c-0.5,0.5-0.9,0.6-1.7,0.6c-0.8,0-1.3-0.2-1.7-0.5c-0.3-0.3-0.4-0.7-0.4-1.2c0-1,0.7-1.7,2-1.7
		h1.8v-0.6c0-0.9-0.4-1.3-1.5-1.3c-0.8,0-1.1,0.2-1.5,0.7l-0.6-0.5c0.5-0.7,1.1-0.9,2.1-0.9c1.6,0,2.4,0.7,2.4,2v4H156z M156,216
		h-1.7c-0.9,0-1.3,0.4-1.3,1s0.4,1,1.4,1c0.5,0,0.9,0,1.3-0.4c0.2-0.2,0.3-0.5,0.3-1V216z"/>
	<path class="st2" d="M162.5,218.7v-3.6c0-1-0.6-1.6-1.5-1.6c-0.9,0-1.5,0.5-1.5,1.6v3.6h-0.9v-5.9h0.9v0.6c0.4-0.5,1-0.7,1.7-0.7
		c0.6,0,1.2,0.2,1.5,0.6c0.4,0.4,0.6,1,0.6,1.6v3.8H162.5z"/>
	<path class="st2" d="M166.7,218.7c-1,0-1.5-0.7-1.5-1.6v-7h0.9v6.9c0,0.6,0.2,0.9,0.8,0.9h0.5v0.7H166.7z"/>
	<path class="st2" d="M172.3,218.7v-0.7c-0.4,0.5-1,0.7-1.7,0.7c-0.6,0-1.2-0.2-1.5-0.6c-0.4-0.4-0.6-1-0.6-1.7v-3.8h0.9v3.6
		c0,1,0.6,1.6,1.4,1.6c0.9,0,1.5-0.5,1.5-1.6v-3.6h0.9v5.9H172.3z"/>
	<path class="st2" d="M177.4,218.8c-1.5,0-2.6-1-2.6-3s1.1-3,2.6-3c0.8,0,1.3,0.2,1.9,0.9l-0.6,0.6c-0.4-0.5-0.8-0.7-1.4-0.7
		c-0.6,0-1.1,0.2-1.4,0.7c-0.3,0.4-0.4,0.8-0.4,1.6c0,0.7,0.1,1.2,0.4,1.6c0.3,0.4,0.8,0.7,1.4,0.7c0.6,0,0.9-0.2,1.4-0.7l0.6,0.6
		C178.7,218.6,178.2,218.8,177.4,218.8z"/>
	<path class="st2" d="M183.9,218.7v-0.6c-0.5,0.5-0.9,0.6-1.7,0.6c-0.8,0-1.3-0.2-1.7-0.5c-0.3-0.3-0.4-0.7-0.4-1.2
		c0-1,0.7-1.7,2-1.7h1.8v-0.6c0-0.9-0.4-1.3-1.5-1.3c-0.8,0-1.1,0.2-1.5,0.7l-0.6-0.5c0.5-0.7,1.1-0.9,2.1-0.9c1.6,0,2.4,0.7,2.4,2
		v4H183.9z M183.9,216h-1.7c-0.9,0-1.3,0.4-1.3,1s0.4,1,1.4,1c0.5,0,0.9,0,1.3-0.4c0.2-0.2,0.3-0.5,0.3-1V216z"/>
	<path class="st2" d="M196,218.7v-6.5l-2.3,5.1h-0.8l-2.4-5.1v6.5h-0.9v-8.5h0.9l2.8,6.1l2.7-6.1h0.9v8.5H196z"/>
	<path class="st2" d="M202.3,218.7v-0.6c-0.5,0.5-0.9,0.6-1.7,0.6c-0.8,0-1.3-0.2-1.7-0.5c-0.3-0.3-0.4-0.7-0.4-1.2
		c0-1,0.7-1.7,2-1.7h1.8v-0.6c0-0.9-0.4-1.3-1.5-1.3c-0.8,0-1.1,0.2-1.5,0.7l-0.6-0.5c0.5-0.7,1.1-0.9,2.1-0.9c1.6,0,2.4,0.7,2.4,2
		v4H202.3z M202.3,216h-1.7c-0.9,0-1.3,0.4-1.3,1s0.4,1,1.4,1c0.5,0,0.9,0,1.3-0.4c0.2-0.2,0.3-0.5,0.3-1V216z"/>
	<path class="st2" d="M208.3,214c-0.3-0.3-0.6-0.4-1-0.4c-0.9,0-1.4,0.7-1.4,1.6v3.6H205v-5.9h0.9v0.7c0.3-0.5,1-0.8,1.7-0.8
		c0.6,0,1,0.1,1.4,0.6L208.3,214z"/>
	<path class="st2" d="M211.5,218.7c-1,0-1.5-0.7-1.5-1.6v-3.6h-0.7v-0.7h0.7V211h0.9v1.8h1.3v0.7h-1.3v3.6c0,0.5,0.3,0.9,0.8,0.9
		h0.5v0.7H211.5z"/>
	<path class="st2" d="M213.5,211.2v-1h1v1H213.5z M213.6,218.7v-5.9h0.9v5.9H213.6z"/>
	<path class="st2" d="M220.1,218.7v-3.6c0-1-0.6-1.6-1.5-1.6s-1.5,0.5-1.5,1.6v3.6h-0.9v-5.9h0.9v0.6c0.4-0.5,1-0.7,1.7-0.7
		c0.6,0,1.2,0.2,1.5,0.6c0.4,0.4,0.6,1,0.6,1.6v3.8H220.1z"/>
	<path class="st2" d="M226.7,218.1c-0.4,0.4-1,0.7-1.7,0.7c-0.7,0-1.3-0.3-1.7-0.7c-0.6-0.6-0.7-1.4-0.7-2.4c0-0.9,0.1-1.7,0.7-2.4
		c0.4-0.4,1-0.7,1.7-0.7c0.7,0,1.3,0.3,1.7,0.7c0.6,0.6,0.7,1.4,0.7,2.4C227.4,216.7,227.3,217.5,226.7,218.1z M226.1,214
		c-0.3-0.3-0.7-0.4-1.1-0.4c-0.4,0-0.8,0.2-1.1,0.4c-0.4,0.4-0.5,1.2-0.5,1.8c0,0.7,0,1.4,0.5,1.8c0.3,0.3,0.6,0.4,1.1,0.4
		c0.4,0,0.8-0.2,1.1-0.4c0.4-0.4,0.5-1.2,0.5-1.8C226.5,215.1,226.5,214.4,226.1,214z"/>
	<path class="st2" d="M229,220.5v-2.8h1.1v1.8L229,220.5z"/>
	<path class="st2" d="M239.9,218c-0.5,0.5-1.3,0.8-2.2,0.8h-2.9v-8.5h2.9c0.9,0,1.6,0.3,2.2,0.8c0.9,0.9,0.8,2.2,0.8,3.4
		C240.8,215.6,240.8,217.1,239.9,218z M239.3,211.6c-0.4-0.5-1-0.6-1.7-0.6h-1.9v6.9h1.9c0.7,0,1.2-0.2,1.7-0.6
		c0.6-0.6,0.6-1.9,0.6-2.9C239.8,213.3,239.9,212.3,239.3,211.6z"/>
	<path class="st2" d="M245.9,218.7v-0.6c-0.5,0.5-0.9,0.6-1.7,0.6c-0.8,0-1.3-0.2-1.7-0.5c-0.3-0.3-0.4-0.7-0.4-1.2
		c0-1,0.7-1.7,2-1.7h1.8v-0.6c0-0.9-0.4-1.3-1.5-1.3c-0.8,0-1.1,0.2-1.5,0.7l-0.6-0.5c0.5-0.7,1.1-0.9,2.1-0.9c1.6,0,2.4,0.7,2.4,2
		v4H245.9z M245.9,216h-1.7c-0.9,0-1.3,0.4-1.3,1s0.4,1,1.4,1c0.5,0,0.9,0,1.3-0.4c0.2-0.2,0.3-0.5,0.3-1V216z"/>
	<path class="st2" d="M250.6,218.7h-0.8l-2.2-5.9h0.9l1.6,4.7l1.6-4.7h0.9L250.6,218.7z"/>
	<path class="st2" d="M253.7,211.2v-1h1v1H253.7z M253.7,218.7v-5.9h0.9v5.9H253.7z"/>
	<path class="st2" d="M260,218.7V218c-0.5,0.6-1,0.8-1.7,0.8c-0.6,0-1.1-0.2-1.4-0.5c-0.6-0.6-0.7-1.6-0.7-2.5
		c0-0.9,0.1-1.9,0.7-2.5c0.3-0.3,0.8-0.5,1.4-0.5c0.6,0,1.2,0.1,1.7,0.8v-3.3h0.9v8.5H260z M258.5,213.5c-1.3,0-1.5,1.1-1.5,2.3
		s0.2,2.3,1.5,2.3s1.5-1.1,1.5-2.3S259.8,213.5,258.5,213.5z"/>
	<path class="st2" d="M272.1,218.7v-6.5l-2.3,5.1H269l-2.4-5.1v6.5h-0.9v-8.5h0.9l2.8,6.1l2.7-6.1h0.9v8.5H272.1z"/>
	<path class="st2" d="M275.6,216c0,1.3,0.6,2,1.7,2c0.7,0,1.1-0.2,1.5-0.7l0.6,0.5c-0.6,0.6-1.2,0.9-2.2,0.9c-1.6,0-2.6-0.9-2.6-3
		c0-1.9,0.9-3,2.4-3c1.5,0,2.4,1.1,2.4,2.9v0.4H275.6z M278.6,214.4c-0.2-0.5-0.8-0.9-1.4-0.9c-0.6,0-1.2,0.3-1.4,0.9
		c-0.1,0.3-0.2,0.5-0.2,1h3.1C278.7,214.9,278.7,214.7,278.6,214.4z"/>
	<path class="st2" d="M282.7,218.7c-1,0-1.5-0.7-1.5-1.6v-7h0.9v6.9c0,0.6,0.2,0.9,0.8,0.9h0.5v0.7H282.7z"/>
	<path class="st2" d="M286,218.7c-1,0-1.5-0.7-1.5-1.6v-7h0.9v6.9c0,0.6,0.2,0.9,0.8,0.9h0.5v0.7H286z"/>
	<path class="st2" d="M287.8,211.2v-1h1v1H287.8z M287.9,218.7v-5.9h0.9v5.9H287.9z"/>
	<path class="st2" d="M292.5,218.8c-1,0-1.8-0.2-2.4-0.9l0.6-0.6c0.5,0.5,1.1,0.7,1.8,0.7c1,0,1.6-0.3,1.6-1c0-0.5-0.3-0.8-1-0.9
		l-1-0.1c-1.2-0.1-1.8-0.6-1.8-1.6c0-1.1,0.9-1.7,2.2-1.7c0.8,0,1.6,0.2,2.1,0.6l-0.6,0.6c-0.4-0.3-1-0.5-1.6-0.5
		c-0.9,0-1.3,0.4-1.3,1c0,0.5,0.3,0.8,1,0.9l0.9,0.1c1,0.1,1.7,0.5,1.7,1.6C294.9,218.2,294,218.8,292.5,218.8z"/>
	<path class="st2" d="M302.5,218.7v-0.6c-0.5,0.5-0.9,0.6-1.7,0.6c-0.8,0-1.3-0.2-1.7-0.5c-0.3-0.3-0.4-0.7-0.4-1.2
		c0-1,0.7-1.7,2-1.7h1.8v-0.6c0-0.9-0.4-1.3-1.5-1.3c-0.8,0-1.1,0.2-1.5,0.7l-0.6-0.5c0.5-0.7,1.1-0.9,2.1-0.9c1.6,0,2.4,0.7,2.4,2
		v4H302.5z M302.5,216h-1.7c-0.9,0-1.3,0.4-1.3,1s0.4,1,1.4,1c0.5,0,0.9,0,1.3-0.4c0.2-0.2,0.3-0.5,0.3-1V216z"/>
	<path class="st2" d="M309,218.7v-3.6c0-1-0.6-1.6-1.5-1.6s-1.5,0.5-1.5,1.6v3.6h-0.9v-5.9h0.9v0.6c0.4-0.5,1-0.7,1.7-0.7
		c0.6,0,1.2,0.2,1.5,0.6c0.4,0.4,0.6,1,0.6,1.6v3.8H309z"/>
	<path class="st2" d="M315.2,218.7V218c-0.5,0.6-1,0.8-1.7,0.8c-0.6,0-1.1-0.2-1.4-0.5c-0.6-0.6-0.7-1.6-0.7-2.5
		c0-0.9,0.1-1.9,0.7-2.5c0.3-0.3,0.8-0.5,1.4-0.5c0.6,0,1.2,0.1,1.7,0.8v-3.3h0.9v8.5H315.2z M313.7,213.5c-1.3,0-1.5,1.1-1.5,2.3
		s0.2,2.3,1.5,2.3s1.5-1.1,1.5-2.3S315,213.5,313.7,213.5z"/>
	<path class="st2" d="M326.4,218.7l-4.5-6.8v6.8h-0.9v-8.5h0.9l4.5,6.8v-6.8h0.9v8.5H326.4z"/>
	<path class="st2" d="M329.2,211.2v-1h1v1H329.2z M329.3,218.7v-5.9h0.9v5.9H329.3z"/>
	<path class="st2" d="M334.4,218.8c-1.5,0-2.6-1-2.6-3s1.1-3,2.6-3c0.8,0,1.3,0.2,1.9,0.9l-0.6,0.6c-0.4-0.5-0.8-0.7-1.4-0.7
		c-0.6,0-1.1,0.2-1.4,0.7c-0.3,0.4-0.4,0.8-0.4,1.6c0,0.7,0.1,1.2,0.4,1.6c0.3,0.4,0.8,0.7,1.4,0.7c0.6,0,0.9-0.2,1.4-0.7l0.6,0.6
		C335.7,218.6,335.2,218.8,334.4,218.8z"/>
	<path class="st2" d="M341.5,218.7v-3.6c0-1-0.6-1.6-1.4-1.6s-1.5,0.5-1.5,1.6v3.6h-0.9v-8.5h0.9v3.3c0.4-0.5,1-0.7,1.7-0.7
		c1.3,0,2.1,0.9,2.1,2.2v3.8H341.5z"/>
	<path class="st2" d="M348,218.1c-0.4,0.4-1,0.7-1.7,0.7c-0.7,0-1.3-0.3-1.7-0.7c-0.6-0.6-0.7-1.4-0.7-2.4c0-0.9,0.1-1.7,0.7-2.4
		c0.4-0.4,1-0.7,1.7-0.7c0.7,0,1.3,0.3,1.7,0.7c0.6,0.6,0.7,1.4,0.7,2.4C348.7,216.7,348.6,217.5,348,218.1z M347.4,214
		c-0.3-0.3-0.7-0.4-1.1-0.4c-0.4,0-0.8,0.2-1.1,0.4c-0.4,0.4-0.5,1.2-0.5,1.8c0,0.7,0,1.4,0.5,1.8c0.3,0.3,0.6,0.4,1.1,0.4
		c0.4,0,0.8-0.2,1.1-0.4c0.4-0.4,0.5-1.2,0.5-1.8C347.9,215.1,347.8,214.4,347.4,214z"/>
	<path class="st2" d="M351.8,218.7c-1,0-1.5-0.7-1.5-1.6v-7h0.9v6.9c0,0.6,0.2,0.9,0.8,0.9h0.5v0.7H351.8z"/>
	<path class="st2" d="M357,218.7v-0.6c-0.5,0.5-0.9,0.6-1.7,0.6c-0.8,0-1.3-0.2-1.7-0.5c-0.3-0.3-0.4-0.7-0.4-1.2c0-1,0.7-1.7,2-1.7
		h1.8v-0.6c0-0.9-0.4-1.3-1.5-1.3c-0.8,0-1.1,0.2-1.5,0.7l-0.6-0.5c0.5-0.7,1.1-0.9,2.1-0.9c1.6,0,2.4,0.7,2.4,2v4H357z M357,216
		h-1.7c-0.9,0-1.3,0.4-1.3,1s0.4,1,1.4,1c0.5,0,0.9,0,1.3-0.4c0.2-0.2,0.3-0.5,0.3-1V216z"/>
	<path class="st2" d="M361.6,218.8c-1,0-1.8-0.2-2.4-0.9l0.6-0.6c0.5,0.5,1.1,0.7,1.8,0.7c1,0,1.6-0.3,1.6-1c0-0.5-0.3-0.8-1-0.9
		l-1-0.1c-1.2-0.1-1.8-0.6-1.8-1.6c0-1.1,0.9-1.7,2.2-1.7c0.8,0,1.6,0.2,2.1,0.6l-0.6,0.6c-0.4-0.3-1-0.5-1.6-0.5
		c-0.9,0-1.3,0.4-1.3,1c0,0.5,0.3,0.8,1,0.9l0.9,0.1c1,0.1,1.7,0.5,1.7,1.6C364,218.2,363,218.8,361.6,218.8z"/>
	<path class="st2" d="M28.7,233.1v-0.9l4.3-6.9h-4.1v-0.8H34v0.8l-4.3,7H34v0.8H28.7z"/>
	<path class="st2" d="M38.9,233.1v-0.6c-0.5,0.5-0.9,0.6-1.7,0.6c-0.8,0-1.3-0.2-1.7-0.5c-0.3-0.3-0.4-0.7-0.4-1.2
		c0-1,0.7-1.7,2-1.7h1.8v-0.6c0-0.9-0.4-1.3-1.5-1.3c-0.8,0-1.1,0.2-1.5,0.7l-0.6-0.5c0.5-0.7,1.1-0.9,2.1-0.9c1.6,0,2.4,0.7,2.4,2
		v4H38.9z M38.9,230.4h-1.7c-0.9,0-1.3,0.4-1.3,1s0.4,1,1.4,1c0.5,0,0.9,0,1.3-0.4c0.2-0.2,0.3-0.5,0.3-1V230.4z"/>
	<path class="st2" d="M49.2,233.1v-3.6c0-1-0.6-1.6-1.5-1.6c-0.9,0-1.5,0.5-1.5,1.5v3.7h-0.9v-3.6c0-1-0.6-1.6-1.5-1.6
		c-0.9,0-1.5,0.5-1.5,1.6v3.6h-0.9v-5.9h0.9v0.6c0.4-0.5,1-0.7,1.7-0.7c0.8,0,1.5,0.3,1.8,1c0.5-0.6,1.1-1,1.9-1
		c0.6,0,1.2,0.2,1.5,0.6c0.4,0.4,0.6,1,0.6,1.6v3.8H49.2z"/>
	<path class="st2" d="M55.9,232.7c-0.3,0.3-0.8,0.5-1.4,0.5c-0.6,0-1.2-0.2-1.7-0.8v0.7h-0.9v-8.5h0.9v3.3c0.5-0.6,1-0.8,1.7-0.8
		c0.6,0,1.1,0.2,1.4,0.5c0.6,0.6,0.7,1.6,0.7,2.5C56.6,231.1,56.5,232.1,55.9,232.7z M54.2,227.9c-1.3,0-1.5,1.1-1.5,2.3
		s0.2,2.3,1.5,2.3s1.5-1.1,1.5-2.3S55.5,227.9,54.2,227.9z"/>
	<path class="st2" d="M58.7,230.4c0,1.3,0.6,2,1.7,2c0.7,0,1.1-0.2,1.5-0.7l0.6,0.5c-0.6,0.6-1.2,0.9-2.2,0.9c-1.6,0-2.6-0.9-2.6-3
		c0-1.9,0.9-3,2.4-3c1.5,0,2.4,1.1,2.4,2.9v0.4H58.7z M61.7,228.8c-0.2-0.5-0.8-0.9-1.4-0.9s-1.2,0.3-1.4,0.9
		c-0.1,0.3-0.2,0.5-0.2,1h3.1C61.8,229.3,61.8,229.1,61.7,228.8z"/>
	<path class="st2" d="M66,233.1c-1,0-1.5-0.7-1.5-1.6v-3.6h-0.7v-0.7h0.7v-1.8h0.9v1.8h1.3v0.7h-1.3v3.6c0,0.5,0.3,0.9,0.8,0.9h0.5
		v0.7H66z"/>
	<path class="st2" d="M69.7,233.1c-1,0-1.5-0.7-1.5-1.6v-3.6h-0.7v-0.7h0.7v-1.8h0.9v1.8h1.3v0.7h-1.3v3.6c0,0.5,0.3,0.9,0.8,0.9
		h0.5v0.7H69.7z"/>
	<path class="st2" d="M71.8,225.6v-1h1v1H71.8z M71.8,233.1v-5.9h0.9v5.9H71.8z"/>
	<path class="st2" d="M74.6,233.1V232h1.1v1.1H74.6z"/>
	<path class="st2" d="M34.2,261c-0.6,0.6-1.4,1-2.3,1c-0.8,0-1.6-0.3-2.2-0.9c-0.8-0.8-0.8-1.6-0.8-3.5c0-1.8,0-2.7,0.8-3.5
		c0.6-0.6,1.3-0.9,2.2-0.9c1.6,0,2.7,1.1,3,2.6H34c-0.2-1.1-1-1.7-2.1-1.7c-0.6,0-1.1,0.2-1.5,0.6c-0.5,0.6-0.6,1.1-0.6,2.9
		s0.1,2.4,0.6,2.9c0.4,0.4,0.9,0.6,1.5,0.6c0.6,0,1.2-0.3,1.6-0.7c0.3-0.4,0.5-0.9,0.5-1.5v-0.6h-2.1v-0.8h3v1.4
		C34.9,259.8,34.7,260.5,34.2,261z"/>
	<path class="st2" d="M39.9,257.2c-0.3-0.3-0.6-0.4-1-0.4c-0.9,0-1.4,0.7-1.4,1.6v3.6h-0.9V256h0.9v0.7c0.3-0.5,1-0.8,1.7-0.8
		c0.6,0,1,0.1,1.4,0.6L39.9,257.2z"/>
	<path class="st2" d="M44.7,261.9v-0.6c-0.5,0.5-0.9,0.6-1.7,0.6c-0.8,0-1.3-0.2-1.7-0.5c-0.3-0.3-0.4-0.7-0.4-1.2
		c0-1,0.7-1.7,2-1.7h1.8V258c0-0.9-0.4-1.3-1.5-1.3c-0.8,0-1.1,0.2-1.5,0.7l-0.6-0.5c0.5-0.7,1.1-0.9,2.1-0.9c1.6,0,2.4,0.7,2.4,2v4
		H44.7z M44.7,259.2H43c-0.9,0-1.3,0.4-1.3,1s0.4,1,1.4,1c0.5,0,0.9,0,1.3-0.4c0.2-0.2,0.3-0.5,0.3-1V259.2z"/>
	<path class="st2" d="M51.2,261.9v-3.6c0-1-0.6-1.6-1.5-1.6c-0.9,0-1.5,0.5-1.5,1.6v3.6h-0.9V256h0.9v0.6c0.4-0.5,1-0.7,1.7-0.7
		c0.6,0,1.2,0.2,1.5,0.6c0.4,0.4,0.6,1,0.6,1.6v3.8H51.2z"/>
	<path class="st2" d="M57.4,261.9v-0.7c-0.5,0.6-1,0.8-1.7,0.8c-0.6,0-1.1-0.2-1.4-0.5c-0.6-0.6-0.7-1.6-0.7-2.5
		c0-0.9,0.1-1.9,0.7-2.5c0.3-0.3,0.8-0.5,1.4-0.5c0.6,0,1.2,0.1,1.7,0.8v-3.3h0.9v8.5H57.4z M55.9,256.7c-1.3,0-1.5,1.1-1.5,2.3
		s0.2,2.3,1.5,2.3s1.5-1.1,1.5-2.3S57.2,256.7,55.9,256.7z"/>
	<path class="st2" d="M61.3,256.7v5.2h-0.9v-5.2h-0.8v-0.7h0.8V255c0-0.9,0.5-1.6,1.5-1.6h0.6v0.7h-0.5c-0.6,0-0.8,0.3-0.8,0.9v1.1
		h1.3v0.7H61.3z"/>
	<path class="st2" d="M66.9,261.9v-0.6c-0.5,0.5-0.9,0.6-1.7,0.6c-0.8,0-1.3-0.2-1.7-0.5c-0.3-0.3-0.4-0.7-0.4-1.2
		c0-1,0.7-1.7,2-1.7h1.8V258c0-0.9-0.4-1.3-1.5-1.3c-0.8,0-1.1,0.2-1.5,0.7l-0.6-0.5c0.5-0.7,1.1-0.9,2.1-0.9c1.6,0,2.4,0.7,2.4,2v4
		H66.9z M66.9,259.2h-1.7c-0.9,0-1.3,0.4-1.3,1s0.4,1,1.4,1c0.5,0,0.9,0,1.3-0.4c0.2-0.2,0.3-0.5,0.3-1V259.2z"/>
	<path class="st2" d="M71.2,261.9c-1,0-1.5-0.7-1.5-1.6v-3.6H69v-0.7h0.7v-1.8h0.9v1.8h1.3v0.7h-1.3v3.6c0,0.5,0.3,0.9,0.8,0.9h0.5
		v0.7H71.2z"/>
	<path class="st2" d="M77.1,261.9v-3.6c0-1-0.6-1.6-1.4-1.6c-0.9,0-1.5,0.5-1.5,1.6v3.6h-0.9v-8.5h0.9v3.3c0.4-0.5,1-0.7,1.7-0.7
		c1.3,0,2.1,0.9,2.1,2.2v3.8H77.1z"/>
	<path class="st2" d="M80.4,259.2c0,1.3,0.6,2,1.7,2c0.7,0,1.1-0.2,1.5-0.7l0.6,0.5c-0.6,0.6-1.2,0.9-2.2,0.9c-1.6,0-2.6-0.9-2.6-3
		c0-1.9,0.9-3,2.4-3c1.5,0,2.4,1.1,2.4,2.9v0.4H80.4z M83.3,257.6c-0.2-0.5-0.8-0.9-1.4-0.9s-1.2,0.3-1.4,0.9
		c-0.1,0.3-0.2,0.5-0.2,1h3.1C83.5,258.1,83.4,257.9,83.3,257.6z"/>
	<path class="st2" d="M89.2,257.2c-0.3-0.3-0.6-0.4-1-0.4c-0.9,0-1.4,0.7-1.4,1.6v3.6h-0.9V256h0.9v0.7c0.3-0.5,1-0.8,1.7-0.8
		c0.6,0,1,0.1,1.4,0.6L89.2,257.2z"/>
	<path class="st2" d="M90.9,259.2c0,1.3,0.6,2,1.7,2c0.7,0,1.1-0.2,1.5-0.7l0.6,0.5c-0.6,0.6-1.2,0.9-2.2,0.9c-1.6,0-2.6-0.9-2.6-3
		c0-1.9,0.9-3,2.4-3c1.5,0,2.4,1.1,2.4,2.9v0.4H90.9z M93.8,257.6c-0.2-0.5-0.8-0.9-1.4-0.9s-1.2,0.3-1.4,0.9
		c-0.1,0.3-0.2,0.5-0.2,1H94C94,258.1,94,257.9,93.8,257.6z"/>
	<path class="st2" d="M100,261.9v-0.7c-0.5,0.6-1,0.8-1.7,0.8c-0.6,0-1.1-0.2-1.4-0.5c-0.6-0.6-0.7-1.6-0.7-2.5
		c0-0.9,0.1-1.9,0.7-2.5c0.3-0.3,0.8-0.5,1.4-0.5c0.6,0,1.2,0.1,1.7,0.8v-3.3h0.9v8.5H100z M98.5,256.7c-1.3,0-1.5,1.1-1.5,2.3
		s0.2,2.3,1.5,2.3s1.5-1.1,1.5-2.3S99.8,256.7,98.5,256.7z"/>
	<path class="st2" d="M109.5,261.5c-0.3,0.3-0.8,0.5-1.4,0.5c-0.6,0-1.2-0.2-1.7-0.8v0.7h-0.9v-8.5h0.9v3.3c0.5-0.6,1-0.8,1.7-0.8
		c0.6,0,1.1,0.2,1.4,0.5c0.6,0.6,0.7,1.6,0.7,2.5C110.2,259.9,110.1,260.9,109.5,261.5z M107.9,256.7c-1.3,0-1.5,1.1-1.5,2.3
		s0.2,2.3,1.5,2.3s1.5-1.1,1.5-2.3S109.2,256.7,107.9,256.7z"/>
	<path class="st2" d="M113.3,263.4c-0.1,0.3-0.3,0.5-0.4,0.7c-0.3,0.3-0.7,0.4-1.2,0.4h-0.4v-0.8h0.3c0.6,0,0.8-0.2,1-0.7l0.4-1.2
		l-2.1-5.8h0.9l1.6,4.7l1.6-4.7h0.9L113.3,263.4z"/>
	<path class="st2" d="M123,258.4h-2.3v3.5h-0.9v-8.5h3.2c1.6,0,2.6,1,2.6,2.5S124.6,258.4,123,258.4z M122.9,254.2h-2.2v3.4h2.2
		c1.1,0,1.8-0.6,1.8-1.7C124.8,254.8,124,254.2,122.9,254.2z"/>
	<path class="st2" d="M130.3,257.2c-0.3-0.3-0.6-0.4-1-0.4c-0.9,0-1.4,0.7-1.4,1.6v3.6H127V256h0.9v0.7c0.3-0.5,1-0.8,1.7-0.8
		c0.6,0,1,0.1,1.4,0.6L130.3,257.2z"/>
	<path class="st2" d="M135.2,261.3c-0.4,0.4-1,0.7-1.7,0.7s-1.3-0.3-1.7-0.7c-0.6-0.6-0.7-1.4-0.7-2.4c0-0.9,0.1-1.7,0.7-2.4
		c0.4-0.4,1-0.7,1.7-0.7s1.3,0.3,1.7,0.7c0.6,0.6,0.7,1.4,0.7,2.4C135.9,259.9,135.8,260.7,135.2,261.3z M134.6,257.2
		c-0.3-0.3-0.7-0.4-1.1-0.4s-0.8,0.2-1.1,0.4c-0.4,0.4-0.5,1.2-0.5,1.8c0,0.7,0,1.4,0.5,1.8c0.3,0.3,0.6,0.4,1.1,0.4
		s0.8-0.2,1.1-0.4c0.4-0.4,0.5-1.2,0.5-1.8C135.1,258.3,135,257.6,134.6,257.2z"/>
	<path class="st2" d="M139.8,262c-1.5,0-2.6-1-2.6-3s1.1-3,2.6-3c0.8,0,1.3,0.2,1.9,0.9l-0.6,0.6c-0.4-0.5-0.8-0.7-1.4-0.7
		c-0.6,0-1.1,0.2-1.4,0.7c-0.3,0.4-0.4,0.8-0.4,1.6c0,0.7,0.1,1.2,0.4,1.6c0.3,0.4,0.8,0.7,1.4,0.7c0.6,0,0.9-0.2,1.4-0.7l0.6,0.6
		C141.2,261.8,140.6,262,139.8,262z"/>
	<path class="st2" d="M143.5,259.2c0,1.3,0.6,2,1.7,2c0.7,0,1.1-0.2,1.5-0.7l0.6,0.5c-0.6,0.6-1.2,0.9-2.2,0.9c-1.6,0-2.6-0.9-2.6-3
		c0-1.9,0.9-3,2.4-3c1.5,0,2.4,1.1,2.4,2.9v0.4H143.5z M146.5,257.6c-0.2-0.5-0.8-0.9-1.4-0.9s-1.2,0.3-1.4,0.9
		c-0.1,0.3-0.2,0.5-0.2,1h3.1C146.6,258.1,146.6,257.9,146.5,257.6z"/>
	<path class="st2" d="M151,262c-1,0-1.8-0.2-2.4-0.9l0.6-0.6c0.5,0.5,1.1,0.7,1.8,0.7c1,0,1.6-0.3,1.6-1c0-0.5-0.3-0.8-1-0.9l-1-0.1
		c-1.2-0.1-1.8-0.6-1.8-1.6c0-1.1,0.9-1.7,2.2-1.7c0.8,0,1.6,0.2,2.1,0.6l-0.6,0.6c-0.4-0.3-1-0.5-1.6-0.5c-0.9,0-1.3,0.4-1.3,1
		c0,0.5,0.3,0.8,1,0.9l0.9,0.1c1,0.1,1.7,0.5,1.7,1.6C153.4,261.4,152.4,262,151,262z"/>
	<path class="st2" d="M156.5,262c-1,0-1.8-0.2-2.4-0.9l0.6-0.6c0.5,0.5,1.1,0.7,1.8,0.7c1,0,1.6-0.3,1.6-1c0-0.5-0.3-0.8-1-0.9
		l-1-0.1c-1.2-0.1-1.8-0.6-1.8-1.6c0-1.1,0.9-1.7,2.2-1.7c0.8,0,1.6,0.2,2.1,0.6l-0.6,0.6c-0.4-0.3-1-0.5-1.6-0.5
		c-0.9,0-1.3,0.4-1.3,1c0,0.5,0.3,0.8,1,0.9l0.9,0.1c1,0.1,1.7,0.5,1.7,1.6C158.9,261.4,157.9,262,156.5,262z"/>
	<path class="st2" d="M160.3,254.4v-1h1v1H160.3z M160.3,261.9V256h0.9v5.9H160.3z"/>
	<path class="st2" d="M166.9,261.9v-3.6c0-1-0.6-1.6-1.5-1.6c-0.9,0-1.5,0.5-1.5,1.6v3.6h-0.9V256h0.9v0.6c0.4-0.5,1-0.7,1.7-0.7
		c0.6,0,1.2,0.2,1.5,0.6c0.4,0.4,0.6,1,0.6,1.6v3.8H166.9z"/>
	<path class="st2" d="M171.5,264.7c-0.9,0-1.4-0.2-2-0.8l0.6-0.6c0.4,0.4,0.7,0.6,1.4,0.6c1.1,0,1.6-0.8,1.6-1.8v-0.9
		c-0.5,0.6-1,0.8-1.7,0.8c-0.6,0-1.1-0.2-1.4-0.5c-0.6-0.6-0.7-1.5-0.7-2.5c0-1,0.1-1.9,0.7-2.5c0.3-0.3,0.8-0.5,1.4-0.5
		c0.6,0,1.2,0.1,1.7,0.8V256h0.9v6.1C174,263.6,173.1,264.7,171.5,264.7z M171.7,256.7c-1.3,0-1.5,1.1-1.5,2.2s0.2,2.2,1.5,2.2
		c1.3,0,1.5-1.1,1.5-2.2S173,256.7,171.7,256.7z"/>
	<path class="st2" d="M175.9,263.7v-2.8h1.1v1.8L175.9,263.7z"/>
	<path class="st2" d="M187.2,261.9h-0.8l-1.5-4.6l-1.5,4.6h-0.8l-1.9-5.9h0.9l1.4,4.7l1.5-4.7h0.7l1.6,4.7l1.3-4.7h0.9L187.2,261.9z
		"/>
	<path class="st2" d="M193.3,257.2c-0.3-0.3-0.6-0.4-1-0.4c-0.9,0-1.4,0.7-1.4,1.6v3.6H190V256h0.9v0.7c0.3-0.5,1-0.8,1.7-0.8
		c0.6,0,1,0.1,1.4,0.6L193.3,257.2z"/>
	<path class="st2" d="M194.8,254.4v-1h1v1H194.8z M194.9,261.9V256h0.9v5.9H194.9z"/>
	<path class="st2" d="M199.3,261.9c-1,0-1.5-0.7-1.5-1.6v-3.6h-0.7v-0.7h0.7v-1.8h0.9v1.8h1.3v0.7h-1.3v3.6c0,0.5,0.3,0.9,0.8,0.9
		h0.5v0.7H199.3z"/>
	<path class="st2" d="M203.1,261.9c-1,0-1.5-0.7-1.5-1.6v-3.6h-0.7v-0.7h0.7v-1.8h0.9v1.8h1.3v0.7h-1.3v3.6c0,0.5,0.3,0.9,0.8,0.9
		h0.5v0.7H203.1z"/>
	<path class="st2" d="M205.6,259.2c0,1.3,0.6,2,1.7,2c0.7,0,1.1-0.2,1.5-0.7l0.6,0.5c-0.6,0.6-1.2,0.9-2.2,0.9c-1.6,0-2.6-0.9-2.6-3
		c0-1.9,0.9-3,2.4-3c1.5,0,2.4,1.1,2.4,2.9v0.4H205.6z M208.5,257.6c-0.2-0.5-0.8-0.9-1.4-0.9c-0.6,0-1.2,0.3-1.4,0.9
		c-0.1,0.3-0.2,0.5-0.2,1h3.1C208.7,258.1,208.7,257.9,208.5,257.6z"/>
	<path class="st2" d="M214.9,261.9v-3.6c0-1-0.6-1.6-1.5-1.6s-1.5,0.5-1.5,1.6v3.6h-0.9V256h0.9v0.6c0.4-0.5,1-0.7,1.7-0.7
		c0.6,0,1.2,0.2,1.5,0.6c0.4,0.4,0.6,1,0.6,1.6v3.8H214.9z"/>
	<path class="st2" d="M224.4,261.5c-0.3,0.3-0.8,0.5-1.4,0.5c-0.6,0-1.2-0.2-1.7-0.8v0.7h-0.9v-8.5h0.9v3.3c0.5-0.6,1-0.8,1.7-0.8
		c0.6,0,1.1,0.2,1.4,0.5c0.6,0.6,0.7,1.6,0.7,2.5C225.1,259.9,225,260.9,224.4,261.5z M222.8,256.7c-1.3,0-1.5,1.1-1.5,2.3
		s0.2,2.3,1.5,2.3c1.3,0,1.5-1.1,1.5-2.3S224.1,256.7,222.8,256.7z"/>
	<path class="st2" d="M228.2,263.4c-0.1,0.3-0.3,0.5-0.4,0.7c-0.3,0.3-0.7,0.4-1.2,0.4h-0.4v-0.8h0.3c0.6,0,0.8-0.2,1-0.7l0.4-1.2
		l-2.1-5.8h0.9l1.6,4.7l1.6-4.7h0.9L228.2,263.4z"/>
	<path class="st2" d="M237.4,262c-0.8,0-1.6-0.3-2.2-0.9c-0.8-0.8-0.8-1.6-0.8-3.5c0-1.8,0-2.7,0.8-3.5c0.6-0.6,1.3-0.9,2.2-0.9
		c1.5,0,2.7,0.9,3,2.5h-0.9c-0.2-1-1-1.7-2-1.7c-0.6,0-1.1,0.2-1.5,0.6c-0.5,0.6-0.6,1.1-0.6,2.9s0.1,2.4,0.6,2.9
		c0.4,0.4,0.9,0.6,1.5,0.6c1.1,0,1.8-0.7,2.1-1.7h0.9C240.1,261.1,238.9,262,237.4,262z"/>
	<path class="st2" d="M245.3,261.9v-0.6c-0.5,0.5-0.9,0.6-1.7,0.6c-0.8,0-1.3-0.2-1.7-0.5c-0.3-0.3-0.4-0.7-0.4-1.2
		c0-1,0.7-1.7,2-1.7h1.8V258c0-0.9-0.4-1.3-1.5-1.3c-0.8,0-1.1,0.2-1.5,0.7l-0.6-0.5c0.5-0.7,1.1-0.9,2.1-0.9c1.6,0,2.4,0.7,2.4,2v4
		H245.3z M245.3,259.2h-1.7c-0.9,0-1.3,0.4-1.3,1s0.4,1,1.4,1c0.5,0,0.9,0,1.3-0.4c0.2-0.2,0.3-0.5,0.3-1V259.2z"/>
	<path class="st2" d="M249.9,262c-1,0-1.8-0.2-2.4-0.9l0.6-0.6c0.5,0.5,1.1,0.7,1.8,0.7c1,0,1.6-0.3,1.6-1c0-0.5-0.3-0.8-1-0.9
		l-1-0.1c-1.2-0.1-1.8-0.6-1.8-1.6c0-1.1,0.9-1.7,2.2-1.7c0.8,0,1.6,0.2,2.1,0.6l-0.6,0.6c-0.4-0.3-1-0.5-1.6-0.5
		c-0.9,0-1.3,0.4-1.3,1c0,0.5,0.3,0.8,1,0.9l0.9,0.1c1,0.1,1.7,0.5,1.7,1.6C252.3,261.4,251.3,262,249.9,262z"/>
	<path class="st2" d="M254.3,259.2c0,1.3,0.6,2,1.7,2c0.7,0,1.1-0.2,1.5-0.7l0.6,0.5c-0.6,0.6-1.2,0.9-2.2,0.9c-1.6,0-2.6-0.9-2.6-3
		c0-1.9,0.9-3,2.4-3c1.5,0,2.4,1.1,2.4,2.9v0.4H254.3z M257.3,257.6c-0.2-0.5-0.8-0.9-1.4-0.9c-0.6,0-1.2,0.3-1.4,0.9
		c-0.1,0.3-0.2,0.5-0.2,1h3.1C257.4,258.1,257.4,257.9,257.3,257.6z"/>
	<path class="st2" d="M261.2,263.4c-0.1,0.3-0.3,0.5-0.4,0.7c-0.3,0.3-0.7,0.4-1.2,0.4h-0.4v-0.8h0.3c0.6,0,0.8-0.2,1-0.7l0.4-1.2
		l-2.1-5.8h0.9l1.6,4.7l1.6-4.7h0.9L261.2,263.4z"/>
	<path class="st2" d="M272.7,261.9l-1.9-3.8h-2.1v3.8h-0.9v-8.5h3.3c1.5,0,2.5,0.9,2.5,2.4c0,1.2-0.8,2.1-1.9,2.3l2,3.9H272.7z
		 M271,254.2h-2.3v3.1h2.3c1,0,1.7-0.5,1.7-1.6C272.7,254.7,272,254.2,271,254.2z"/>
	<path class="st2" d="M275.8,259.2c0,1.3,0.6,2,1.7,2c0.7,0,1.1-0.2,1.5-0.7l0.6,0.5c-0.6,0.6-1.2,0.9-2.2,0.9c-1.6,0-2.6-0.9-2.6-3
		c0-1.9,0.9-3,2.4-3c1.5,0,2.4,1.1,2.4,2.9v0.4H275.8z M278.8,257.6c-0.2-0.5-0.8-0.9-1.4-0.9c-0.6,0-1.2,0.3-1.4,0.9
		c-0.1,0.3-0.2,0.5-0.2,1h3.1C278.9,258.1,278.9,257.9,278.8,257.6z"/>
	<path class="st2" d="M284.7,261.9v-0.6c-0.5,0.5-0.9,0.6-1.7,0.6c-0.8,0-1.3-0.2-1.7-0.5c-0.3-0.3-0.4-0.7-0.4-1.2
		c0-1,0.7-1.7,2-1.7h1.8V258c0-0.9-0.4-1.3-1.5-1.3c-0.8,0-1.1,0.2-1.5,0.7l-0.6-0.5c0.5-0.7,1.1-0.9,2.1-0.9c1.6,0,2.4,0.7,2.4,2v4
		H284.7z M284.7,259.2h-1.7c-0.9,0-1.3,0.4-1.3,1s0.4,1,1.4,1c0.5,0,0.9,0,1.3-0.4c0.2-0.2,0.3-0.5,0.3-1V259.2z"/>
	<path class="st2" d="M289.3,262c-1,0-1.8-0.2-2.4-0.9l0.6-0.6c0.5,0.5,1.1,0.7,1.8,0.7c1,0,1.6-0.3,1.6-1c0-0.5-0.3-0.8-1-0.9
		l-1-0.1c-1.2-0.1-1.8-0.6-1.8-1.6c0-1.1,0.9-1.7,2.2-1.7c0.8,0,1.6,0.2,2.1,0.6l-0.6,0.6c-0.4-0.3-1-0.5-1.6-0.5
		c-0.9,0-1.3,0.4-1.3,1c0,0.5,0.3,0.8,1,0.9l0.9,0.1c1,0.1,1.7,0.5,1.7,1.6C291.7,261.4,290.8,262,289.3,262z"/>
	<path class="st2" d="M299.3,261.9v-0.6c-0.5,0.5-0.9,0.6-1.7,0.6c-0.8,0-1.3-0.2-1.7-0.5c-0.3-0.3-0.4-0.7-0.4-1.2
		c0-1,0.7-1.7,2-1.7h1.8V258c0-0.9-0.4-1.3-1.5-1.3c-0.8,0-1.1,0.2-1.5,0.7l-0.6-0.5c0.5-0.7,1.1-0.9,2.1-0.9c1.6,0,2.4,0.7,2.4,2v4
		H299.3z M299.3,259.2h-1.7c-0.9,0-1.3,0.4-1.3,1s0.4,1,1.4,1c0.5,0,0.9,0,1.3-0.4c0.2-0.2,0.3-0.5,0.3-1V259.2z"/>
	<path class="st2" d="M305.8,261.9v-3.6c0-1-0.6-1.6-1.5-1.6s-1.5,0.5-1.5,1.6v3.6H302V256h0.9v0.6c0.4-0.5,1-0.7,1.7-0.7
		c0.6,0,1.2,0.2,1.5,0.6c0.4,0.4,0.6,1,0.6,1.6v3.8H305.8z"/>
	<path class="st2" d="M312,261.9v-0.7c-0.5,0.6-1,0.8-1.7,0.8c-0.6,0-1.1-0.2-1.4-0.5c-0.6-0.6-0.7-1.6-0.7-2.5
		c0-0.9,0.1-1.9,0.7-2.5c0.3-0.3,0.8-0.5,1.4-0.5c0.6,0,1.2,0.1,1.7,0.8v-3.3h0.9v8.5H312z M310.5,256.7c-1.3,0-1.5,1.1-1.5,2.3
		s0.2,2.3,1.5,2.3s1.5-1.1,1.5-2.3S311.8,256.7,310.5,256.7z"/>
	<path class="st2" d="M321,261.9h-3.3v-8.5h3.2c1.5,0,2.5,0.9,2.5,2.3c0,0.9-0.5,1.6-1.3,1.9c0.8,0.3,1.4,1,1.4,2
		C323.6,261.1,322.5,261.9,321,261.9z M320.9,254.2h-2.2v3h2.2c0.9,0,1.7-0.5,1.7-1.5C322.5,254.7,321.8,254.2,320.9,254.2z
		 M321,258h-2.3v3.1h2.3c1.1,0,1.7-0.6,1.7-1.6C322.7,258.6,322,258,321,258z"/>
	<path class="st2" d="M326.1,259.2c0,1.3,0.6,2,1.7,2c0.7,0,1.1-0.2,1.5-0.7l0.6,0.5c-0.6,0.6-1.2,0.9-2.2,0.9c-1.6,0-2.6-0.9-2.6-3
		c0-1.9,0.9-3,2.4-3c1.5,0,2.4,1.1,2.4,2.9v0.4H326.1z M329.1,257.6c-0.2-0.5-0.8-0.9-1.4-0.9c-0.6,0-1.2,0.3-1.4,0.9
		c-0.1,0.3-0.2,0.5-0.2,1h3.1C329.2,258.1,329.2,257.9,329.1,257.6z"/>
	<path class="st2" d="M335.7,261.9v-3.6c0-1-0.6-1.6-1.5-1.6s-1.5,0.5-1.5,1.6v3.6h-0.9V256h0.9v0.6c0.4-0.5,1-0.7,1.7-0.7
		c0.6,0,1.2,0.2,1.5,0.6c0.4,0.4,0.6,1,0.6,1.6v3.8H335.7z"/>
	<path class="st2" d="M342.7,254.2v3.1h3.7v0.8h-3.7v3.8h-0.9v-8.5h5.3v0.8H342.7z"/>
	<path class="st2" d="M351.3,257.2c-0.3-0.3-0.6-0.4-1-0.4c-0.9,0-1.4,0.7-1.4,1.6v3.6H348V256h0.9v0.7c0.3-0.5,1-0.8,1.7-0.8
		c0.6,0,1,0.1,1.4,0.6L351.3,257.2z"/>
	<path class="st2" d="M354.3,263.4c-0.1,0.3-0.3,0.5-0.4,0.7c-0.3,0.3-0.7,0.4-1.2,0.4h-0.4v-0.8h0.3c0.6,0,0.8-0.2,1-0.7l0.4-1.2
		l-2.1-5.8h0.9l1.6,4.7l1.6-4.7h0.9L354.3,263.4z"/>
	<path class="st2" d="M357.1,261.9v-1.1h1.1v1.1H357.1z"/>
	<path class="st2" d="M31.9,276.4c-0.8,0-1.6-0.3-2.2-0.9c-0.8-0.8-0.8-1.6-0.8-3.5c0-1.8,0-2.7,0.8-3.5c0.6-0.6,1.3-0.9,2.2-0.9
		c1.5,0,2.7,0.9,3,2.5h-0.9c-0.2-1-1-1.7-2-1.7c-0.6,0-1.1,0.2-1.5,0.6c-0.5,0.6-0.6,1.1-0.6,2.9s0.1,2.4,0.6,2.9
		c0.4,0.4,0.9,0.6,1.5,0.6c1.1,0,1.8-0.7,2.1-1.7h0.9C34.6,275.5,33.4,276.4,31.9,276.4z"/>
	<path class="st2" d="M40.3,275.7c-0.4,0.4-1,0.7-1.7,0.7s-1.3-0.3-1.7-0.7c-0.6-0.6-0.7-1.4-0.7-2.4c0-0.9,0.1-1.7,0.7-2.4
		c0.4-0.4,1-0.7,1.7-0.7s1.3,0.3,1.7,0.7c0.6,0.6,0.7,1.4,0.7,2.4C41,274.3,40.9,275.1,40.3,275.7z M39.7,271.6
		c-0.3-0.3-0.7-0.4-1.1-0.4s-0.8,0.2-1.1,0.4c-0.4,0.4-0.5,1.2-0.5,1.8c0,0.7,0,1.4,0.5,1.8c0.3,0.3,0.6,0.4,1.1,0.4
		s0.8-0.2,1.1-0.4c0.4-0.4,0.5-1.2,0.5-1.8C40.1,272.7,40.1,272,39.7,271.6z"/>
	<path class="st2" d="M46.4,276.3v-3.6c0-1-0.6-1.6-1.5-1.6c-0.9,0-1.5,0.5-1.5,1.6v3.6h-0.9v-5.9h0.9v0.6c0.4-0.5,1-0.7,1.7-0.7
		c0.6,0,1.2,0.2,1.5,0.6c0.4,0.4,0.6,1,0.6,1.6v3.8H46.4z"/>
	<path class="st2" d="M50.8,276.3c-1,0-1.5-0.7-1.5-1.6v-3.6h-0.7v-0.7h0.7v-1.8h0.9v1.8h1.3v0.7h-1.3v3.6c0,0.5,0.3,0.9,0.8,0.9
		h0.5v0.7H50.8z"/>
	<path class="st2" d="M56.1,276.3v-0.6c-0.5,0.5-0.9,0.6-1.7,0.6c-0.8,0-1.3-0.2-1.7-0.5c-0.3-0.3-0.4-0.7-0.4-1.2
		c0-1,0.7-1.7,2-1.7h1.8v-0.6c0-0.9-0.4-1.3-1.5-1.3c-0.8,0-1.1,0.2-1.5,0.7l-0.6-0.5c0.5-0.7,1.1-0.9,2.1-0.9c1.6,0,2.4,0.7,2.4,2
		v4H56.1z M56.1,273.6h-1.7c-0.9,0-1.3,0.4-1.3,1s0.4,1,1.4,1c0.5,0,0.9,0,1.3-0.4c0.2-0.2,0.3-0.5,0.3-1V273.6z"/>
	<path class="st2" d="M58.8,268.8v-1h1v1H58.8z M58.8,276.3v-5.9h0.9v5.9H58.8z"/>
	<path class="st2" d="M65.4,276.3v-3.6c0-1-0.6-1.6-1.5-1.6c-0.9,0-1.5,0.5-1.5,1.6v3.6h-0.9v-5.9h0.9v0.6c0.4-0.5,1-0.7,1.7-0.7
		c0.6,0,1.2,0.2,1.5,0.6c0.4,0.4,0.6,1,0.6,1.6v3.8H65.4z"/>
	<path class="st2" d="M70,276.4c-1,0-1.8-0.2-2.4-0.9l0.6-0.6c0.5,0.5,1.1,0.7,1.8,0.7c1,0,1.6-0.3,1.6-1c0-0.5-0.3-0.8-1-0.9
		l-1-0.1c-1.2-0.1-1.8-0.6-1.8-1.6c0-1.1,0.9-1.7,2.2-1.7c0.8,0,1.6,0.2,2.1,0.6l-0.6,0.6c-0.4-0.3-1-0.5-1.6-0.5
		c-0.9,0-1.3,0.4-1.3,1c0,0.5,0.3,0.8,1,0.9l0.9,0.1c1,0.1,1.7,0.5,1.7,1.6C72.4,275.8,71.4,276.4,70,276.4z"/>
	<path class="st2" d="M78.9,276.4c-1.5,0-2.6-1-2.6-3s1.1-3,2.6-3c0.8,0,1.3,0.2,1.9,0.9l-0.6,0.6c-0.4-0.5-0.8-0.7-1.4-0.7
		c-0.6,0-1.1,0.2-1.4,0.7c-0.3,0.4-0.4,0.8-0.4,1.6c0,0.7,0.1,1.2,0.4,1.6c0.3,0.4,0.8,0.7,1.4,0.7c0.6,0,0.9-0.2,1.4-0.7l0.6,0.6
		C80.2,276.2,79.7,276.4,78.9,276.4z"/>
	<path class="st2" d="M85.8,275.7c-0.4,0.4-1,0.7-1.7,0.7s-1.3-0.3-1.7-0.7c-0.6-0.6-0.7-1.4-0.7-2.4c0-0.9,0.1-1.7,0.7-2.4
		c0.4-0.4,1-0.7,1.7-0.7s1.3,0.3,1.7,0.7c0.6,0.6,0.7,1.4,0.7,2.4C86.6,274.3,86.4,275.1,85.8,275.7z M85.2,271.6
		c-0.3-0.3-0.7-0.4-1.1-0.4s-0.8,0.2-1.1,0.4c-0.4,0.4-0.5,1.2-0.5,1.8c0,0.7,0,1.4,0.5,1.8c0.3,0.3,0.6,0.4,1.1,0.4
		s0.8-0.2,1.1-0.4c0.4-0.4,0.5-1.2,0.5-1.8C85.7,272.7,85.7,272,85.2,271.6z"/>
	<path class="st2" d="M91.7,276.3v-0.7c-0.5,0.6-1,0.8-1.7,0.8c-0.6,0-1.1-0.2-1.4-0.5c-0.6-0.6-0.7-1.6-0.7-2.5
		c0-0.9,0.1-1.9,0.7-2.5c0.3-0.3,0.8-0.5,1.4-0.5c0.6,0,1.2,0.1,1.7,0.8v-3.3h0.9v8.5H91.7z M90.2,271.1c-1.3,0-1.5,1.1-1.5,2.3
		s0.2,2.3,1.5,2.3s1.5-1.1,1.5-2.3S91.5,271.1,90.2,271.1z"/>
	<path class="st2" d="M95,273.6c0,1.3,0.6,2,1.7,2c0.7,0,1.1-0.2,1.5-0.7l0.6,0.5c-0.6,0.6-1.2,0.9-2.2,0.9c-1.6,0-2.6-0.9-2.6-3
		c0-1.9,0.9-3,2.4-3c1.5,0,2.4,1.1,2.4,2.9v0.4H95z M97.9,272c-0.2-0.5-0.8-0.9-1.4-0.9s-1.2,0.3-1.4,0.9c-0.1,0.3-0.2,0.5-0.2,1
		h3.1C98.1,272.5,98.1,272.3,97.9,272z"/>
	<path class="st2" d="M108.9,276.3h-0.8l-1.5-4.6l-1.5,4.6h-0.8l-1.9-5.9h0.9l1.4,4.7l1.5-4.7h0.7l1.6,4.7l1.3-4.7h0.9L108.9,276.3z
		"/>
	<path class="st2" d="M115.1,271.6c-0.3-0.3-0.6-0.4-1-0.4c-0.9,0-1.4,0.7-1.4,1.6v3.6h-0.9v-5.9h0.9v0.7c0.3-0.5,1-0.8,1.7-0.8
		c0.6,0,1,0.1,1.4,0.6L115.1,271.6z"/>
	<path class="st2" d="M116.5,268.8v-1h1v1H116.5z M116.6,276.3v-5.9h0.9v5.9H116.6z"/>
	<path class="st2" d="M121,276.3c-1,0-1.5-0.7-1.5-1.6v-3.6h-0.7v-0.7h0.7v-1.8h0.9v1.8h1.3v0.7h-1.3v3.6c0,0.5,0.3,0.9,0.8,0.9h0.5
		v0.7H121z"/>
	<path class="st2" d="M124.8,276.3c-1,0-1.5-0.7-1.5-1.6v-3.6h-0.7v-0.7h0.7v-1.8h0.9v1.8h1.3v0.7h-1.3v3.6c0,0.5,0.3,0.9,0.8,0.9
		h0.5v0.7H124.8z"/>
	<path class="st2" d="M127.3,273.6c0,1.3,0.6,2,1.7,2c0.7,0,1.1-0.2,1.5-0.7l0.6,0.5c-0.6,0.6-1.2,0.9-2.2,0.9c-1.6,0-2.6-0.9-2.6-3
		c0-1.9,0.9-3,2.4-3c1.5,0,2.4,1.1,2.4,2.9v0.4H127.3z M130.3,272c-0.2-0.5-0.8-0.9-1.4-0.9s-1.2,0.3-1.4,0.9
		c-0.1,0.3-0.2,0.5-0.2,1h3.1C130.4,272.5,130.4,272.3,130.3,272z"/>
	<path class="st2" d="M136.7,276.3v-3.6c0-1-0.6-1.6-1.5-1.6c-0.9,0-1.5,0.5-1.5,1.6v3.6h-0.9v-5.9h0.9v0.6c0.4-0.5,1-0.7,1.7-0.7
		c0.6,0,1.2,0.2,1.5,0.6c0.4,0.4,0.6,1,0.6,1.6v3.8H136.7z"/>
	<path class="st2" d="M146.1,275.9c-0.3,0.3-0.8,0.5-1.4,0.5c-0.6,0-1.2-0.2-1.7-0.8v0.7h-0.9v-8.5h0.9v3.3c0.5-0.6,1-0.8,1.7-0.8
		c0.6,0,1.1,0.2,1.4,0.5c0.6,0.6,0.7,1.6,0.7,2.5C146.8,274.3,146.7,275.3,146.1,275.9z M144.5,271.1c-1.3,0-1.5,1.1-1.5,2.3
		s0.2,2.3,1.5,2.3s1.5-1.1,1.5-2.3S145.8,271.1,144.5,271.1z"/>
	<path class="st2" d="M149.9,277.8c-0.1,0.3-0.3,0.5-0.4,0.7c-0.3,0.3-0.7,0.4-1.2,0.4H148v-0.8h0.3c0.6,0,0.8-0.2,1-0.7l0.4-1.2
		l-2.1-5.8h0.9l1.6,4.7l1.6-4.7h0.9L149.9,277.8z"/>
	<path class="st2" d="M159.7,272.8h-2.3v3.5h-0.9v-8.5h3.2c1.6,0,2.6,1,2.6,2.5S161.2,272.8,159.7,272.8z M159.6,268.6h-2.2v3.4h2.2
		c1.1,0,1.8-0.6,1.8-1.7C161.4,269.2,160.6,268.6,159.6,268.6z"/>
	<path class="st2" d="M166.9,276.3v-0.6c-0.5,0.5-0.9,0.6-1.7,0.6c-0.8,0-1.3-0.2-1.7-0.5c-0.3-0.3-0.4-0.7-0.4-1.2
		c0-1,0.7-1.7,2-1.7h1.8v-0.6c0-0.9-0.4-1.3-1.5-1.3c-0.8,0-1.1,0.2-1.5,0.7l-0.6-0.5c0.5-0.7,1.1-0.9,2.1-0.9c1.6,0,2.4,0.7,2.4,2
		v4H166.9z M166.9,273.6h-1.7c-0.9,0-1.3,0.4-1.3,1s0.4,1,1.4,1c0.5,0,0.9,0,1.3-0.4c0.2-0.2,0.3-0.5,0.3-1V273.6z"/>
	<path class="st2" d="M171.5,276.4c-1,0-1.8-0.2-2.4-0.9l0.6-0.6c0.5,0.5,1.1,0.7,1.8,0.7c1,0,1.6-0.3,1.6-1c0-0.5-0.3-0.8-1-0.9
		l-1-0.1c-1.2-0.1-1.8-0.6-1.8-1.6c0-1.1,0.9-1.7,2.2-1.7c0.8,0,1.6,0.2,2.1,0.6l-0.6,0.6c-0.4-0.3-1-0.5-1.6-0.5
		c-0.9,0-1.3,0.4-1.3,1c0,0.5,0.3,0.8,1,0.9l0.9,0.1c1,0.1,1.7,0.5,1.7,1.6C173.9,275.8,172.9,276.4,171.5,276.4z"/>
	<path class="st2" d="M177.6,276.4c-1.5,0-2.6-1-2.6-3s1.1-3,2.6-3c0.8,0,1.3,0.2,1.9,0.9l-0.6,0.6c-0.4-0.5-0.8-0.7-1.4-0.7
		c-0.6,0-1.1,0.2-1.4,0.7c-0.3,0.4-0.4,0.8-0.4,1.6c0,0.7,0.1,1.2,0.4,1.6c0.3,0.4,0.8,0.7,1.4,0.7c0.6,0,0.9-0.2,1.4-0.7l0.6,0.6
		C178.9,276.2,178.4,276.4,177.6,276.4z"/>
	<path class="st2" d="M184.2,276.3v-0.6c-0.5,0.5-0.9,0.6-1.7,0.6c-0.8,0-1.3-0.2-1.7-0.5c-0.3-0.3-0.4-0.7-0.4-1.2
		c0-1,0.7-1.7,2-1.7h1.8v-0.6c0-0.9-0.4-1.3-1.5-1.3c-0.8,0-1.1,0.2-1.5,0.7l-0.6-0.5c0.5-0.7,1.1-0.9,2.1-0.9c1.6,0,2.4,0.7,2.4,2
		v4H184.2z M184.2,273.6h-1.7c-0.9,0-1.3,0.4-1.3,1s0.4,1,1.4,1c0.5,0,0.9,0,1.3-0.4c0.2-0.2,0.3-0.5,0.3-1V273.6z"/>
	<path class="st2" d="M188.4,276.3c-1,0-1.5-0.7-1.5-1.6v-7h0.9v6.9c0,0.6,0.2,0.9,0.8,0.9h0.5v0.7H188.4z"/>
	<path class="st2" d="M195.3,276.4c-1.3,0-2.1-0.3-2.9-1.1l0.6-0.6c0.7,0.7,1.4,0.9,2.3,0.9c1.2,0,2-0.6,2-1.6
		c0-0.4-0.1-0.8-0.4-1.1c-0.3-0.2-0.5-0.3-1.1-0.4l-1-0.2c-0.7-0.1-1.2-0.3-1.6-0.6c-0.4-0.4-0.6-0.9-0.6-1.6c0-1.5,1-2.4,2.7-2.4
		c1.1,0,1.8,0.3,2.5,0.9l-0.6,0.6c-0.5-0.5-1.1-0.7-2-0.7c-1.1,0-1.8,0.6-1.8,1.6c0,0.4,0.1,0.8,0.4,1c0.3,0.2,0.7,0.4,1.2,0.5
		l0.9,0.1c0.8,0.1,1.2,0.3,1.6,0.6c0.5,0.4,0.7,1,0.7,1.7C198.2,275.5,197.1,276.4,195.3,276.4z"/>
	<path class="st2" d="M201.4,276.3c-1,0-1.5-0.7-1.5-1.6v-3.6h-0.7v-0.7h0.7v-1.8h0.9v1.8h1.3v0.7h-1.3v3.6c0,0.5,0.3,0.9,0.8,0.9
		h0.5v0.7H201.4z"/>
	<path class="st2" d="M206.8,276.3v-0.6c-0.5,0.5-0.9,0.6-1.7,0.6c-0.8,0-1.3-0.2-1.7-0.5c-0.3-0.3-0.4-0.7-0.4-1.2
		c0-1,0.7-1.7,2-1.7h1.8v-0.6c0-0.9-0.4-1.3-1.5-1.3c-0.8,0-1.1,0.2-1.5,0.7l-0.6-0.5c0.5-0.7,1.1-0.9,2.1-0.9c1.6,0,2.4,0.7,2.4,2
		v4H206.8z M206.8,273.6h-1.7c-0.9,0-1.3,0.4-1.3,1s0.4,1,1.4,1c0.5,0,0.9,0,1.3-0.4c0.2-0.2,0.3-0.5,0.3-1V273.6z"/>
	<path class="st2" d="M213.3,276.3v-3.6c0-1-0.6-1.6-1.5-1.6s-1.5,0.5-1.5,1.6v3.6h-0.9v-5.9h0.9v0.6c0.4-0.5,1-0.7,1.7-0.7
		c0.6,0,1.2,0.2,1.5,0.6c0.4,0.4,0.6,1,0.6,1.6v3.8H213.3z"/>
	<path class="st2" d="M217.9,279.1c-0.9,0-1.4-0.2-2-0.8l0.6-0.6c0.4,0.4,0.7,0.6,1.4,0.6c1.1,0,1.6-0.8,1.6-1.8v-0.9
		c-0.5,0.6-1,0.8-1.7,0.8c-0.6,0-1.1-0.2-1.4-0.5c-0.6-0.6-0.7-1.5-0.7-2.5c0-1,0.1-1.9,0.7-2.5c0.3-0.3,0.8-0.5,1.4-0.5
		c0.6,0,1.2,0.1,1.7,0.8v-0.7h0.9v6.1C220.3,278,219.4,279.1,217.9,279.1z M218,271.1c-1.3,0-1.5,1.1-1.5,2.2s0.2,2.2,1.5,2.2
		s1.5-1.1,1.5-2.2S219.3,271.1,218,271.1z"/>
	<path class="st2" d="M228.4,276.3v-0.6c-0.5,0.5-0.9,0.6-1.7,0.6c-0.8,0-1.3-0.2-1.7-0.5c-0.3-0.3-0.4-0.7-0.4-1.2
		c0-1,0.7-1.7,2-1.7h1.8v-0.6c0-0.9-0.4-1.3-1.5-1.3c-0.8,0-1.1,0.2-1.5,0.7l-0.6-0.5c0.5-0.7,1.1-0.9,2.1-0.9c1.6,0,2.4,0.7,2.4,2
		v4H228.4z M228.4,273.6h-1.7c-0.9,0-1.3,0.4-1.3,1s0.4,1,1.4,1c0.5,0,0.9,0,1.3-0.4c0.2-0.2,0.3-0.5,0.3-1V273.6z"/>
	<path class="st2" d="M234.9,276.3v-3.6c0-1-0.6-1.6-1.5-1.6s-1.5,0.5-1.5,1.6v3.6h-0.9v-5.9h0.9v0.6c0.4-0.5,1-0.7,1.7-0.7
		c0.6,0,1.2,0.2,1.5,0.6c0.4,0.4,0.6,1,0.6,1.6v3.8H234.9z"/>
	<path class="st2" d="M241.1,276.3v-0.7c-0.5,0.6-1,0.8-1.7,0.8c-0.6,0-1.1-0.2-1.4-0.5c-0.6-0.6-0.7-1.6-0.7-2.5
		c0-0.9,0.1-1.9,0.7-2.5c0.3-0.3,0.8-0.5,1.4-0.5c0.6,0,1.2,0.1,1.7,0.8v-3.3h0.9v8.5H241.1z M239.6,271.1c-1.3,0-1.5,1.1-1.5,2.3
		s0.2,2.3,1.5,2.3s1.5-1.1,1.5-2.3S240.9,271.1,239.6,271.1z"/>
	<path class="st2" d="M251.8,276.3v-3.9h-4.1v3.9h-0.9v-8.5h0.9v3.8h4.1v-3.8h0.9v8.5H251.8z"/>
	<path class="st2" d="M255.3,273.6c0,1.3,0.6,2,1.7,2c0.7,0,1.1-0.2,1.5-0.7l0.6,0.5c-0.6,0.6-1.2,0.9-2.2,0.9c-1.6,0-2.6-0.9-2.6-3
		c0-1.9,0.9-3,2.4-3c1.5,0,2.4,1.1,2.4,2.9v0.4H255.3z M258.2,272c-0.2-0.5-0.8-0.9-1.4-0.9c-0.6,0-1.2,0.3-1.4,0.9
		c-0.1,0.3-0.2,0.5-0.2,1h3.1C258.4,272.5,258.4,272.3,258.2,272z"/>
	<path class="st2" d="M264.2,271.6c-0.3-0.3-0.6-0.4-1-0.4c-0.9,0-1.4,0.7-1.4,1.6v3.6h-0.9v-5.9h0.9v0.7c0.3-0.5,1-0.8,1.7-0.8
		c0.6,0,1,0.1,1.4,0.6L264.2,271.6z"/>
	<path class="st2" d="M269.5,276.3v-3.6c0-1-0.6-1.6-1.5-1.6s-1.5,0.5-1.5,1.6v3.6h-0.9v-5.9h0.9v0.6c0.4-0.5,1-0.7,1.7-0.7
		c0.6,0,1.2,0.2,1.5,0.6c0.4,0.4,0.6,1,0.6,1.6v3.8H269.5z"/>
	<path class="st2" d="M275.5,276.3v-0.6c-0.5,0.5-0.9,0.6-1.7,0.6c-0.8,0-1.3-0.2-1.7-0.5c-0.3-0.3-0.4-0.7-0.4-1.2
		c0-1,0.7-1.7,2-1.7h1.8v-0.6c0-0.9-0.4-1.3-1.5-1.3c-0.8,0-1.1,0.2-1.5,0.7l-0.6-0.5c0.5-0.7,1.1-0.9,2.1-0.9c1.6,0,2.4,0.7,2.4,2
		v4H275.5z M275.5,273.6h-1.7c-0.9,0-1.3,0.4-1.3,1s0.4,1,1.4,1c0.5,0,0.9,0,1.3-0.4c0.2-0.2,0.3-0.5,0.3-1V273.6z"/>
	<path class="st2" d="M282,276.3v-3.6c0-1-0.6-1.6-1.5-1.6s-1.5,0.5-1.5,1.6v3.6h-0.9v-5.9h0.9v0.6c0.4-0.5,1-0.7,1.7-0.7
		c0.6,0,1.2,0.2,1.5,0.6c0.4,0.4,0.6,1,0.6,1.6v3.8H282z"/>
	<path class="st2" d="M288.3,276.3v-0.7c-0.5,0.6-1,0.8-1.7,0.8c-0.6,0-1.1-0.2-1.4-0.5c-0.6-0.6-0.7-1.6-0.7-2.5
		c0-0.9,0.1-1.9,0.7-2.5c0.3-0.3,0.8-0.5,1.4-0.5c0.6,0,1.2,0.1,1.7,0.8v-3.3h0.9v8.5H288.3z M286.8,271.1c-1.3,0-1.5,1.1-1.5,2.3
		s0.2,2.3,1.5,2.3s1.5-1.1,1.5-2.3S288.1,271.1,286.8,271.1z"/>
	<path class="st2" d="M294.8,275.7c-0.4,0.4-1,0.7-1.7,0.7c-0.7,0-1.3-0.3-1.7-0.7c-0.6-0.6-0.7-1.4-0.7-2.4c0-0.9,0.1-1.7,0.7-2.4
		c0.4-0.4,1-0.7,1.7-0.7c0.7,0,1.3,0.3,1.7,0.7c0.6,0.6,0.7,1.4,0.7,2.4C295.6,274.3,295.4,275.1,294.8,275.7z M294.2,271.6
		c-0.3-0.3-0.7-0.4-1.1-0.4c-0.4,0-0.8,0.2-1.1,0.4c-0.4,0.4-0.5,1.2-0.5,1.8c0,0.7,0,1.4,0.5,1.8c0.3,0.3,0.6,0.4,1.1,0.4
		c0.4,0,0.8-0.2,1.1-0.4c0.4-0.4,0.5-1.2,0.5-1.8C294.7,272.7,294.7,272,294.2,271.6z"/>
	<path class="st2" d="M303.4,276.3h-3.3v-8.5h3.2c1.5,0,2.5,0.9,2.5,2.3c0,0.9-0.5,1.6-1.3,1.9c0.8,0.3,1.4,1,1.4,2
		C305.9,275.5,304.9,276.3,303.4,276.3z M303.2,268.6H301v3h2.2c0.9,0,1.7-0.5,1.7-1.5C304.9,269.1,304.2,268.6,303.2,268.6z
		 M303.3,272.4H301v3.1h2.3c1.1,0,1.7-0.6,1.7-1.6C305,273,304.4,272.4,303.3,272.4z"/>
	<path class="st2" d="M311,276.3v-0.6c-0.5,0.5-0.9,0.6-1.7,0.6c-0.8,0-1.3-0.2-1.7-0.5c-0.3-0.3-0.4-0.7-0.4-1.2c0-1,0.7-1.7,2-1.7
		h1.8v-0.6c0-0.9-0.4-1.3-1.5-1.3c-0.8,0-1.1,0.2-1.5,0.7l-0.6-0.5c0.5-0.7,1.1-0.9,2.1-0.9c1.6,0,2.4,0.7,2.4,2v4H311z M311,273.6
		h-1.7c-0.9,0-1.3,0.4-1.3,1s0.4,1,1.4,1c0.5,0,0.9,0,1.3-0.4c0.2-0.2,0.3-0.5,0.3-1V273.6z"/>
	<path class="st2" d="M317.1,271.6c-0.3-0.3-0.6-0.4-1-0.4c-0.9,0-1.4,0.7-1.4,1.6v3.6h-0.9v-5.9h0.9v0.7c0.3-0.5,1-0.8,1.7-0.8
		c0.6,0,1,0.1,1.4,0.6L317.1,271.6z"/>
	<path class="st2" d="M321.9,271.6c-0.3-0.3-0.6-0.4-1-0.4c-0.9,0-1.4,0.7-1.4,1.6v3.6h-0.9v-5.9h0.9v0.7c0.3-0.5,1-0.8,1.7-0.8
		c0.6,0,1,0.1,1.4,0.6L321.9,271.6z"/>
	<path class="st2" d="M326.6,276.3v-0.6c-0.5,0.5-0.9,0.6-1.7,0.6c-0.8,0-1.3-0.2-1.7-0.5c-0.3-0.3-0.4-0.7-0.4-1.2
		c0-1,0.7-1.7,2-1.7h1.8v-0.6c0-0.9-0.4-1.3-1.5-1.3c-0.8,0-1.1,0.2-1.5,0.7l-0.6-0.5c0.5-0.7,1.1-0.9,2.1-0.9c1.6,0,2.4,0.7,2.4,2
		v4H326.6z M326.6,273.6H325c-0.9,0-1.3,0.4-1.3,1s0.4,1,1.4,1c0.5,0,0.9,0,1.3-0.4c0.2-0.2,0.3-0.5,0.3-1V273.6z"/>
	<path class="st2" d="M331.2,279.1c-0.9,0-1.4-0.2-2-0.8l0.6-0.6c0.4,0.4,0.7,0.6,1.4,0.6c1.1,0,1.6-0.8,1.6-1.8v-0.9
		c-0.5,0.6-1,0.8-1.7,0.8c-0.6,0-1.1-0.2-1.4-0.5c-0.6-0.6-0.7-1.5-0.7-2.5c0-1,0.1-1.9,0.7-2.5c0.3-0.3,0.8-0.5,1.4-0.5
		c0.6,0,1.2,0.1,1.7,0.8v-0.7h0.9v6.1C333.7,278,332.8,279.1,331.2,279.1z M331.4,271.1c-1.3,0-1.5,1.1-1.5,2.2s0.2,2.2,1.5,2.2
		s1.5-1.1,1.5-2.2S332.7,271.1,331.4,271.1z"/>
	<path class="st2" d="M339,276.3v-0.6c-0.5,0.5-0.9,0.6-1.7,0.6c-0.8,0-1.3-0.2-1.7-0.5c-0.3-0.3-0.4-0.7-0.4-1.2c0-1,0.7-1.7,2-1.7
		h1.8v-0.6c0-0.9-0.4-1.3-1.5-1.3c-0.8,0-1.1,0.2-1.5,0.7l-0.6-0.5c0.5-0.7,1.1-0.9,2.1-0.9c1.6,0,2.4,0.7,2.4,2v4H339z M339,273.6
		h-1.7c-0.9,0-1.3,0.4-1.3,1s0.4,1,1.4,1c0.5,0,0.9,0,1.3-0.4c0.2-0.2,0.3-0.5,0.3-1V273.6z"/>
	<path class="st2" d="M345.5,276.3v-3.6c0-1-0.6-1.6-1.5-1.6s-1.5,0.5-1.5,1.6v3.6h-0.9v-5.9h0.9v0.6c0.4-0.5,1-0.7,1.7-0.7
		c0.6,0,1.2,0.2,1.5,0.6c0.4,0.4,0.6,1,0.6,1.6v3.8H345.5z"/>
	<path class="st2" d="M348.2,276.3v-1.1h1.1v1.1H348.2z"/>
</g>
<g>
	<path class="st2" d="M155.4,141.2l-3.1-6.6h-1.5v6.6h-4.4v-17.8h7c3.9,0,6.1,2.8,6.1,5.7c0,2.4-1.5,3.9-2.9,4.6l3.8,7.4H155.4z
		 M153.2,127.4h-2.5v3.6h2.5c1.2,0,1.9-0.9,1.9-1.8C155.1,128.2,154.4,127.4,153.2,127.4z"/>
	<path class="st2" d="M165.8,135.8c0,1.1,0.8,2.1,2.4,2.1c1.4,0,2-0.4,2.8-1.1l2.4,2.4c-1.4,1.4-2.7,2.1-5.2,2.1
		c-3,0-6.4-1.1-6.4-6.9c0-4.4,2.5-6.9,6-6.9c3.9,0,6,2.8,6,6.4v1.8H165.8z M169.6,132.1c-0.2-0.6-0.8-1-1.8-1s-1.5,0.5-1.8,1
		c-0.2,0.3-0.2,0.7-0.2,1h4C169.8,132.8,169.8,132.4,169.6,132.1z"/>
	<path class="st2" d="M186.7,140.1c-0.8,0.8-1.9,1.2-3.2,1.2c-1.3,0-2.2-0.4-3-1.1v5.3h-4.1v-17.8h4v1.1c0.8-0.8,1.7-1.2,3.1-1.2
		c1.3,0,2.5,0.4,3.3,1.2c1.3,1.3,1.2,3.7,1.2,5.6S188,138.8,186.7,140.1z M182.2,131.3c-1.5,0-1.7,1.2-1.7,3.2
		c0,1.9,0.2,3.2,1.7,3.2c1.5,0,1.7-1.2,1.7-3.2C183.9,132.6,183.7,131.3,182.2,131.3z"/>
	<path class="st2" d="M194.6,141.2c-3,0-4.2-2.1-4.2-4v-13.8h4.1v13.5c0,0.5,0.3,0.8,0.8,0.8h1.4v3.4H194.6z"/>
	<path class="st2" d="M201.1,127.2c-1.4,0-2.5-1.1-2.5-2.5s1.1-2.5,2.5-2.5s2.5,1.1,2.5,2.5S202.5,127.2,201.1,127.2z M199.1,141.2
		v-12.9h4.1v12.9H199.1z"/>
	<path class="st2" d="M211.7,141.4c-2.3,0-6-1-6-6.9c0-5.9,3.7-6.9,6-6.9c1.9,0,3.3,0.6,4.4,1.7l-2.8,2.8c-0.5-0.5-1-0.8-1.6-0.8
		c-0.5,0-0.9,0.2-1.3,0.5c-0.5,0.5-0.7,1.4-0.7,2.6c0,1.3,0.2,2.1,0.7,2.6c0.3,0.3,0.7,0.5,1.3,0.5c0.7,0,1.1-0.3,1.6-0.8l2.8,2.8
		C215,140.7,213.6,141.4,211.7,141.4z"/>
	<path class="st2" d="M224.6,141.2v-1.1c-0.8,0.8-1.6,1.2-3,1.2c-1.3,0-2.5-0.4-3.2-1.2c-0.8-0.8-1.2-1.9-1.2-3.1
		c0-2,1.4-3.9,4.6-3.9h2.7v-0.3c0-1.2-0.6-1.7-2-1.7c-1,0-1.5,0.2-2.1,0.9l-2.5-2.5c1.4-1.4,2.6-1.8,4.9-1.8c3.8,0,5.9,1.6,5.9,4.9
		v8.7H224.6z M224.5,135.8h-2.1c-0.8,0-1.3,0.4-1.3,1.1c0,0.6,0.4,1.1,1.3,1.1c0.8,0,1.2-0.1,1.6-0.5c0.3-0.3,0.4-0.7,0.4-1.3V135.8
		z"/>
	<path class="st2" d="M236,141.2c-3,0-4.2-2.1-4.2-4v-5.8h-1.2v-3.1h1.2v-3.8h4.1v3.8h2.1v3.1h-2.1v5.5c0,0.5,0.3,0.8,0.8,0.8h1.3
		v3.4H236z"/>
	<path class="st2" d="M250.2,139.6c-0.8,0.8-2.1,1.7-4.3,1.7s-3.5-0.9-4.3-1.7c-1.1-1.2-1.5-2.5-1.5-5.1c0-2.6,0.3-3.9,1.5-5.1
		c0.8-0.8,2.1-1.7,4.3-1.7s3.5,0.9,4.3,1.7c1.1,1.2,1.5,2.5,1.5,5.1C251.7,137.1,251.3,138.4,250.2,139.6z M247,131.7
		c-0.2-0.2-0.6-0.4-1.1-0.4s-0.8,0.1-1.1,0.4c-0.5,0.5-0.6,1.5-0.6,2.8c0,1.3,0.1,2.3,0.6,2.8c0.2,0.2,0.6,0.4,1.1,0.4
		s0.8-0.1,1.1-0.4c0.5-0.5,0.6-1.5,0.6-2.8C247.6,133.2,247.5,132.2,247,131.7z"/>
	<path class="st2" d="M261.5,132c-0.4-0.4-0.8-0.7-1.5-0.7c-0.5,0-1.6,0.3-1.6,1.8v8h-4.1v-13.4h4v1.1c0.6-0.6,1.8-1.2,3.2-1.2
		c1.3,0,2.2,0.3,3.1,1.2L261.5,132z"/>
	<path class="st2" d="M277.6,139.3c-1.3,1.3-2.9,2-5,2c-2.1,0-3.6-0.7-4.9-2c-1.9-1.9-1.8-4.4-1.8-7c0-2.7-0.1-5.2,1.8-7
		c1.3-1.3,2.8-2,4.9-2c2.5,0,3.9,0.6,5.5,2.2l-3,3c-0.8-0.8-1.4-1.3-2.5-1.3c-0.8,0-1.4,0.3-1.7,0.8c-0.4,0.5-0.6,1.1-0.6,4.4
		c0,3.2,0.2,3.9,0.6,4.4c0.3,0.4,0.9,0.7,1.7,0.7c0.9,0,1.4-0.3,1.8-0.7c0.5-0.5,0.6-1.3,0.6-1.9v-0.2h-2.4V131h6.8v2.4
		C279.4,136.2,279,137.9,277.6,139.3z"/>
</g>
</svg>
