<?xml version="1.0" encoding="UTF-8" standalone="no"?>
<!-- Generator: Adobe Illustrator 19.1.0, SVG Export Plug-In . SVG Version: 6.00 Build 0)  -->

<svg
   xmlns:dc="http://purl.org/dc/elements/1.1/"
   xmlns:cc="http://creativecommons.org/ns#"
   xmlns:rdf="http://www.w3.org/1999/02/22-rdf-syntax-ns#"
   xmlns:svg="http://www.w3.org/2000/svg"
   xmlns="http://www.w3.org/2000/svg"
   xmlns:sodipodi="http://sodipodi.sourceforge.net/DTD/sodipodi-0.dtd"
   xmlns:inkscape="http://www.inkscape.org/namespaces/inkscape"
   version="1.1"
   id="Layer_1"
   x="0px"
   y="0px"
   viewBox="0 0 425 300"
   style="enable-background:new 0 0 425 300;"
   xml:space="preserve"
   inkscape:version="0.91 r13725"
   sodipodi:docname="about.svg"><metadata
     id="metadata561"><rdf:RDF><cc:Work
         rdf:about=""><dc:format>image/svg+xml</dc:format><dc:type
           rdf:resource="http://purl.org/dc/dcmitype/StillImage" /></cc:Work></rdf:RDF></metadata><defs
     id="defs559" /><sodipodi:namedview
     pagecolor="#ffffff"
     bordercolor="#666666"
     borderopacity="1"
     objecttolerance="10"
     gridtolerance="10"
     guidetolerance="10"
     inkscape:pageopacity="0"
     inkscape:pageshadow="2"
     inkscape:window-width="1535"
     inkscape:window-height="876"
     id="namedview557"
     showgrid="false"
     inkscape:zoom="1.3976471"
     inkscape:cx="136.18286"
     inkscape:cy="53.621098"
     inkscape:window-x="65"
     inkscape:window-y="24"
     inkscape:window-maximized="1"
     inkscape:current-layer="Layer_1" /><style
     type="text/css"
     id="style3">
	.st0{fill:#282828;}
	.st1{fill:#FFE201;}
	.st2{fill:#FFFFFF;}
</style><rect
     class="st0"
     width="425"
     height="300"
     id="rect5" /><g
     id="g7"><g
       id="g9"><path
         class="st1"
         d="M255.4,110h-85.9c-3.8,0-7.3-2-9.2-5.3c-1.9-3.3-1.8-7.3,0.1-10.6l43.1-72.5c1.9-3.2,5.4-5.2,9.1-5.2    c3.7,0,7.2,2,9.1,5.2l42.8,72.5c1.9,3.2,1.9,7.3,0.1,10.6C262.7,108,259.2,110,255.4,110z M212.7,24.7c-0.8,0-1.6,0.4-2,1.1    l-43.1,72.5c-0.4,0.7-0.4,1.6,0,2.3c0.4,0.7,1.1,1.1,2,1.1h85.9c0.8,0,1.6-0.4,2-1.1c0.4-0.7,0.4-1.6,0-2.3l-42.8-72.5    C214.2,25.2,213.5,24.8,212.7,24.7z"
         id="path11" /></g><path
       class="st1"
       d="M212.8,20.6c-2.3,0-4.4,1.2-5.5,3.1l-43.1,72.5c-1.2,2-1.2,4.4-0.1,6.4c1.1,2,3.3,3.2,5.6,3.2h85.9   c2.3,0,4.4-1.2,5.6-3.2c1.1-2,1.1-4.4,0-6.4l-42.8-72.5C217.2,21.8,215.1,20.6,212.8,20.6C212.8,20.6,212.8,20.6,212.8,20.6   L212.8,20.6z"
       id="path13" /><g
       id="g15"><path
         d="M255.4,108.2h-85.9c-3.1,0-6-1.7-7.6-4.4c-1.5-2.7-1.5-6,0.1-8.7l43.1-72.5c1.6-2.6,4.4-4.3,7.5-4.3    c3.1,0,5.9,1.6,7.5,4.3l42.8,72.5c1.6,2.7,1.6,6,0.1,8.7C261.5,106.5,258.6,108.2,255.4,108.2z M212.7,22.9c-1.5,0-2.8,0.8-3.6,2    L166,97.4c-0.8,1.3-0.8,2.8,0,4.1c0.7,1.3,2.1,2,3.6,2h85.9c1.5,0,2.9-0.8,3.6-2c0.7-1.3,0.7-2.9,0-4.1l-42.8-72.5    C215.5,23.7,214.1,22.9,212.7,22.9z"
         id="path17" /></g><polygon
       points="235.6,73.8 229.2,67.4 229.2,71.1 224.6,71.1 224.6,61.9 215.4,61.9 215.4,57.3 219.1,57.3 212.7,50.9 206.2,57.3    209.9,57.3 209.9,61.9 200.7,61.9 200.7,71.1 196.2,71.1 196.2,67.4 189.7,73.8 196.2,80.2 196.2,76.6 200.7,76.6 200.7,85.7    209.9,85.7 209.9,90.3 206.2,90.3 212.7,96.7 219.1,90.3 215.4,90.3 215.4,85.7 224.6,85.7 224.6,76.6 229.2,76.6 229.2,80.2  "
       id="polygon19" /></g><g
     id="g533"><path
       class="st2"
       d="M155.4,141.2l-3.1-6.6h-1.5v6.6h-4.4v-17.8h7c3.9,0,6.1,2.8,6.1,5.7c0,2.4-1.5,3.9-2.9,4.6l3.8,7.4H155.4z    M153.2,127.4h-2.5v3.6h2.5c1.2,0,1.9-0.9,1.9-1.8C155.1,128.2,154.4,127.4,153.2,127.4z"
       id="path535" /><path
       class="st2"
       d="M165.8,135.8c0,1.1,0.8,2.1,2.4,2.1c1.4,0,2-0.4,2.8-1.1l2.4,2.4c-1.4,1.4-2.7,2.1-5.2,2.1   c-3,0-6.4-1.1-6.4-6.9c0-4.4,2.5-6.9,6-6.9c3.9,0,6,2.8,6,6.4v1.8H165.8z M169.6,132.1c-0.2-0.6-0.8-1-1.8-1s-1.5,0.5-1.8,1   c-0.2,0.3-0.2,0.7-0.2,1h4C169.8,132.8,169.8,132.4,169.6,132.1z"
       id="path537" /><path
       class="st2"
       d="M186.7,140.1c-0.8,0.8-1.9,1.2-3.2,1.2c-1.3,0-2.2-0.4-3-1.1v5.3h-4.1v-17.8h4v1.1c0.8-0.8,1.7-1.2,3.1-1.2   c1.3,0,2.5,0.4,3.3,1.2c1.3,1.3,1.2,3.7,1.2,5.6S188,138.8,186.7,140.1z M182.2,131.3c-1.5,0-1.7,1.2-1.7,3.2   c0,1.9,0.2,3.2,1.7,3.2c1.5,0,1.7-1.2,1.7-3.2C183.9,132.6,183.7,131.3,182.2,131.3z"
       id="path539" /><path
       class="st2"
       d="M194.6,141.2c-3,0-4.2-2.1-4.2-4v-13.8h4.1v13.5c0,0.5,0.3,0.8,0.8,0.8h1.4v3.4H194.6z"
       id="path541" /><path
       class="st2"
       d="M201.1,127.2c-1.4,0-2.5-1.1-2.5-2.5s1.1-2.5,2.5-2.5s2.5,1.1,2.5,2.5S202.5,127.2,201.1,127.2z M199.1,141.2   v-12.9h4.1v12.9H199.1z"
       id="path543" /><path
       class="st2"
       d="M211.7,141.4c-2.3,0-6-1-6-6.9c0-5.9,3.7-6.9,6-6.9c1.9,0,3.3,0.6,4.4,1.7l-2.8,2.8c-0.5-0.5-1-0.8-1.6-0.8   c-0.5,0-0.9,0.2-1.3,0.5c-0.5,0.5-0.7,1.4-0.7,2.6c0,1.3,0.2,2.1,0.7,2.6c0.3,0.3,0.7,0.5,1.3,0.5c0.7,0,1.1-0.3,1.6-0.8l2.8,2.8   C215,140.7,213.6,141.4,211.7,141.4z"
       id="path545" /><path
       class="st2"
       d="M224.6,141.2v-1.1c-0.8,0.8-1.6,1.2-3,1.2c-1.3,0-2.5-0.4-3.2-1.2c-0.8-0.8-1.2-1.9-1.2-3.1   c0-2,1.4-3.9,4.6-3.9h2.7v-0.3c0-1.2-0.6-1.7-2-1.7c-1,0-1.5,0.2-2.1,0.9l-2.5-2.5c1.4-1.4,2.6-1.8,4.9-1.8c3.8,0,5.9,1.6,5.9,4.9   v8.7H224.6z M224.5,135.8h-2.1c-0.8,0-1.3,0.4-1.3,1.1c0,0.6,0.4,1.1,1.3,1.1c0.8,0,1.2-0.1,1.6-0.5c0.3-0.3,0.4-0.7,0.4-1.3V135.8   z"
       id="path547" /><path
       class="st2"
       d="M236,141.2c-3,0-4.2-2.1-4.2-4v-5.8h-1.2v-3.1h1.2v-3.8h4.1v3.8h2.1v3.1h-2.1v5.5c0,0.5,0.3,0.8,0.8,0.8h1.3   v3.4H236z"
       id="path549" /><path
       class="st2"
       d="M250.2,139.6c-0.8,0.8-2.1,1.7-4.3,1.7s-3.5-0.9-4.3-1.7c-1.1-1.2-1.5-2.5-1.5-5.1c0-2.6,0.3-3.9,1.5-5.1   c0.8-0.8,2.1-1.7,4.3-1.7s3.5,0.9,4.3,1.7c1.1,1.2,1.5,2.5,1.5,5.1C251.7,137.1,251.3,138.4,250.2,139.6z M247,131.7   c-0.2-0.2-0.6-0.4-1.1-0.4s-0.8,0.1-1.1,0.4c-0.5,0.5-0.6,1.5-0.6,2.8c0,1.3,0.1,2.3,0.6,2.8c0.2,0.2,0.6,0.4,1.1,0.4   s0.8-0.1,1.1-0.4c0.5-0.5,0.6-1.5,0.6-2.8C247.6,133.2,247.5,132.2,247,131.7z"
       id="path551" /><path
       class="st2"
       d="M261.5,132c-0.4-0.4-0.8-0.7-1.5-0.7c-0.5,0-1.6,0.3-1.6,1.8v8h-4.1v-13.4h4v1.1c0.6-0.6,1.8-1.2,3.2-1.2   c1.3,0,2.2,0.3,3.1,1.2L261.5,132z"
       id="path553" /><path
       class="st2"
       d="M277.6,139.3c-1.3,1.3-2.9,2-5,2c-2.1,0-3.6-0.7-4.9-2c-1.9-1.9-1.8-4.4-1.8-7c0-2.7-0.1-5.2,1.8-7   c1.3-1.3,2.8-2,4.9-2c2.5,0,3.9,0.6,5.5,2.2l-3,3c-0.8-0.8-1.4-1.3-2.5-1.3c-0.8,0-1.4,0.3-1.7,0.8c-0.4,0.5-0.6,1.1-0.6,4.4   c0,3.2,0.2,3.9,0.6,4.4c0.3,0.4,0.9,0.7,1.7,0.7c0.9,0,1.4-0.3,1.8-0.7c0.5-0.5,0.6-1.3,0.6-1.9v-0.2h-2.4V131h6.8v2.4   C279.4,136.2,279,137.9,277.6,139.3z"
       id="path555" /></g></svg>
