<?xml version="1.0" encoding="utf-8"?>
<!-- Generator: Adobe Illustrator 19.1.0, SVG Export Plug-In . SVG Version: 6.00 Build 0)  -->
<!DOCTYPE svg PUBLIC "-//W3C//DTD SVG 1.1//EN" "http://www.w3.org/Graphics/SVG/1.1/DTD/svg11.dtd">
<svg version="1.1" id="Layer_1" xmlns="http://www.w3.org/2000/svg" xmlns:xlink="http://www.w3.org/1999/xlink" x="0px" y="0px"
	 viewBox="0 0 1024 1024" style="enable-background:new 0 0 1024 1024;" xml:space="preserve">
<style type="text/css">
	.st0{fill:#FFE201;}
</style>
<g>
	<g>
		<path class="st0" d="M921.5,957.9h-819c-36.2,0-69.7-19.3-87.4-50.5C-2.7,876.2-2.3,837.6,16,806.7l411-691.5
			c18-30.3,51.1-49.2,86.4-49.2c35.5,0.1,68.7,19,86.6,49.3l408,691.4c18.3,31,18.6,69.6,0.7,100.8
			C991.1,938.7,957.6,957.9,921.5,957.9z M513.5,144.8c-7.7,0-14.9,4.1-18.8,10.7l-411,691.5c-4,6.7-4.1,14.8-0.2,21.6
			c3.8,6.7,10.9,10.7,19,10.7h819c8.1,0,15.2-4,19-10.7c3.9-6.8,3.9-15-0.2-21.8l-408-691.4C528.4,148.8,521.2,144.8,513.5,144.8z"
			/>
	</g>
	<path class="st0" d="M514.9,105.4c-21.6,0-41.6,11.4-52.6,29.9l-411,691.5c-11.2,18.9-11.5,42.1-0.6,61.2
		c10.9,19.1,31.2,30.6,53.2,30.6h819c22,0,42.3-11.4,53.2-30.5c10.9-19.1,10.7-42.3-0.4-61.3l-408-691.4
		C556.6,116.8,536.6,105.4,514.9,105.4C515,105.4,514.9,105.4,514.9,105.4L514.9,105.4z"/>
	<g>
		<path d="M921.5,940.5h-819c-29.9,0-57.6-16-72.2-41.6c-14.7-25.8-14.4-57.7,0.8-83.2l411-691.5c14.9-25.1,42.3-40.6,71.4-40.6
			c29.4,0,56.7,15.7,71.5,40.7L993,815.7c15.1,25.6,15.3,57.5,0.6,83.2C979,924.5,951.4,940.5,921.5,940.5z M513.5,127.3
			c-13.9,0-26.8,7.4-33.9,19.2L68.7,838c-7.3,12.2-7.4,26.9-0.4,39.2c6.8,12,20,19.5,34.2,19.5h819c14.2,0,27.3-7.5,34.2-19.5
			c7-12.2,6.8-27.2-0.3-39.3l-408-691.4C540.3,134.7,527.4,127.3,513.5,127.3z"/>
	</g>
	<polygon points="732,612.9 670.8,551.7 670.8,586.7 627.1,586.7 627.1,499.3 539.7,499.3 539.7,455.5 574.7,455.5 513.4,394.3 
		452.2,455.5 487.2,455.5 487.2,499.3 399.8,499.3 399.8,586.7 356.1,586.7 356.1,551.7 294.8,612.9 356.1,674.1 356.1,639.2 
		399.8,639.2 399.8,726.6 487.2,726.6 487.2,770.3 452.2,770.3 513.4,831.5 574.7,770.3 539.7,770.3 539.7,726.6 627.1,726.6 
		627.1,639.2 670.8,639.2 670.8,674.1 	"/>
</g>
</svg>
